<?xml version="1.0" encoding="utf-8"?>
<!-- Uploaded to: SVG Repo, www.svgrepo.com, Generator: SVG Repo Mixer Tools -->
<svg fill="#000000" version="1.1" id="Layer_1" xmlns="http://www.w3.org/2000/svg" xmlns:xlink="http://www.w3.org/1999/xlink" 
	 width="800px" height="800px" viewBox="0 0 210 256" enable-background="new 0 0 210 256" xml:space="preserve">
<path d="M174.55,144.5L174.55,144.5c-1.4-4-5-6.5-9.2-6.5H159V23c0-11.708-9.292-21-21-21H25C12.57,2,2,12.57,2,25v183
	c0,11.9,10.95,22,22.75,22l114.213,0c1.207,0,2.27,0.984,2.18,2.188c-0.095,1.266-1.153,1.812-2.393,1.812h-45.5L128,254h80
	L174.55,144.5z M82.05,220.2c-3.199,0-5.599-2.399-5.6-5.598c-0.001-3.045,2.557-5.602,5.602-5.602
	c3.199,0.001,5.598,2.401,5.598,5.6C87.55,217.8,85.25,220.2,82.05,220.2z M144,138h-19.65c-5.3,0-9.8,4.7-9.8,10l0,0
	c0,5.3,4.5,10,9.8,10h19.8v42H18V31h126V138z M122.309,87.625v31.221c0,4.652-4.445,9.097-9.097,9.097H85.92
	c-5.686,0-10.286-0.724-15.61-2.584c-1.654-0.569-6.513-2.584-6.513-2.584v-36.39l21.451-25.225l1.964-11.217h3.877
	c4.342,0,7.34,3.463,7.34,7.753v2.429c0,5.531-0.31,11.113-0.982,16.592l-0.207,1.809h15.972
	C117.864,78.527,122.309,82.972,122.309,87.625z M39.089,126.65h19.487V82.456H39.089V126.65z"/>
</svg>