<svg width="26" height="26" viewBox="0 0 26 26" fill="none" xmlns="http://www.w3.org/2000/svg">
<path fill-rule="evenodd" clip-rule="evenodd" d="M12.9997 4.0625C8.67846 4.0625 5.14551 7.64734 5.14551 12.1068C5.14551 14.3555 6.04492 16.8458 7.51665 18.7689C8.99219 20.697 10.9451 21.9375 12.9997 21.9375C15.0542 21.9375 17.0071 20.697 18.4827 18.7689C19.9545 16.8458 20.8538 14.3555 20.8538 12.1068C20.8538 7.64734 17.3209 4.0625 12.9997 4.0625ZM3.52051 12.1068C3.52051 6.78329 7.74795 2.4375 12.9997 2.4375C18.2514 2.4375 22.4788 6.78329 22.4788 12.1068C22.4788 14.7496 21.4382 17.5809 19.7732 19.7564C18.112 21.9271 15.7316 23.5625 12.9997 23.5625C10.2677 23.5625 7.88736 21.9271 6.22618 19.7564C4.56119 17.5809 3.52051 14.7496 3.52051 12.1068Z" fill="#050B20"/>
<path fill-rule="evenodd" clip-rule="evenodd" d="M9.47852 11.375C9.47852 9.43051 11.0549 7.85419 12.9993 7.85419C14.9438 7.85419 16.5202 9.43051 16.5202 11.375C16.5202 13.3195 14.9438 14.8959 12.9993 14.8959C11.0549 14.8959 9.47852 13.3195 9.47852 11.375ZM12.9993 9.47919C11.9523 9.47919 11.1035 10.328 11.1035 11.375C11.1035 12.4221 11.9523 13.2709 12.9993 13.2709C14.0464 13.2709 14.8952 12.4221 14.8952 11.375C14.8952 10.328 14.0464 9.47919 12.9993 9.47919Z" fill="#E1E1E1"/>
</svg>
