<!DOCTYPE svg PUBLIC "-//W3C//DTD SVG 1.1//EN" "http://www.w3.org/Graphics/SVG/1.1/DTD/svg11.dtd">

<!-- Uploaded to: SVG Repo, www.svgrepo.com, Transformed by: SVG Repo Mixer Tools -->
<svg height="800px" width="800px" version="1.1" id="Capa_1" xmlns="http://www.w3.org/2000/svg" xmlns:xlink="http://www.w3.org/1999/xlink" viewBox="0 0 74.042 74.042" xml:space="preserve" fill="#a77958">

<g id="SVGRepo_bgCarrier" stroke-width="0"/>

<g id="SVGRepo_tracerCarrier" stroke-linecap="round" stroke-linejoin="round"/>

<g id="SVGRepo_iconCarrier"> <path style="fill:#a77958;" d="M71.8,63.696c-0.29,0.47-0.905,0.616-1.376,0.327c-1.013-0.624-2.181-0.954-3.376-0.954 c-3.556,0-6.448,2.893-6.448,6.448c0,0.959,0.206,1.882,0.61,2.742c0.235,0.5,0.021,1.095-0.479,1.331 c-0.138,0.065-0.282,0.095-0.425,0.095c-0.375,0-0.735-0.212-0.905-0.574c-0.531-1.128-0.801-2.338-0.801-3.594 c0-4.658,3.79-8.448,8.448-8.448c1.566,0,3.096,0.433,4.425,1.25C71.943,62.609,72.09,63.226,71.8,63.696z M67.048,54.824 c1.236,0,2.465,0.154,3.651,0.457c0.533,0.137,1.08-0.187,1.216-0.721c0.137-0.535-0.186-1.08-0.721-1.217 c-1.347-0.345-2.742-0.52-4.146-0.52c-4.485,0-8.554,1.787-11.557,4.675H33.333c-0.552,0-1,0.448-1,1s0.448,1,1,1h20.394 c-2.107,2.794-3.372,6.257-3.372,10.018c0,1.132,0.114,2.263,0.339,3.363c0.097,0.474,0.513,0.8,0.979,0.8 c0.066,0,0.134-0.006,0.202-0.021c0.541-0.11,0.89-0.639,0.779-1.18c-0.198-0.969-0.298-1.965-0.298-2.962 C52.355,61.416,58.946,54.824,67.048,54.824z M73.117,33.272c-0.138,0.421-0.53,0.689-0.951,0.689c-0.103,0-0.208-0.016-0.311-0.05 l-6.633-2.17l-8.048,6.944c1.234,0.484,2.448,1.162,3.434,2.131c1.247,1.226,1.969,2.742,2.165,4.512H71c0.552,0,1,0.448,1,1 s-0.448,1-1,1H44.833c-0.252,0-0.497,0.011-0.74,0.024c-0.153,2.793-1.107,4.956-2.861,6.424c-2.061,1.724-4.73,2.068-6.532,2.068 c-1.132,0-1.921-0.135-2.001-0.15c-0.015-0.003-0.027-0.013-0.042-0.016c-0.707,1.446-1.059,2.603-1.157,2.952v2.534 c1.627,0.36,3.5,1.813,3.5,5c0,3.187-1.873,4.639-3.5,4.999v0.367h14.75c0.552,0,1,0.448,1,1s-0.448,1-1,1H30.5 c-0.552,0-1-0.448-1-1V58.5c0-0.081,0.01-0.161,0.029-0.239c0.032-0.129,3.326-12.931,15.304-12.931h2.344l6.432-5.55 c-1.588-0.271-2.819-0.263-2.843-0.262H39v3.923c0,0.552-0.448,1-1,1s-1-0.448-1-1v-3.923h-3c-0.169-0.019-1.915-0.03-3.206-1.317 c-0.859-0.856-1.294-2.03-1.294-3.489v-7.182c0-0.552,0.448-1,1-1s1,0.448,1,1v7.182c0,0.908,0.238,1.605,0.706,2.073 c0.708,0.706,1.78,0.734,1.791,0.734H37V13.107H2v47.187h25c0.552,0,1,0.448,1,1s-0.448,1-1,1H2v9.392h24.667c0.552,0,1,0.448,1,1 s-0.448,1-1,1H1c-0.552,0-1-0.448-1-1V12.107c0-0.552,0.448-1,1-1h4.052c0.051-1.132,0.322-3.043,1.502-4.3 c0.726-0.773,1.705-1.182,2.83-1.182c0.552,0,1,0.448,1,1s-0.448,1-1,1c-0.582,0-1.017,0.174-1.37,0.549 c-0.676,0.717-0.902,2.019-0.957,2.933h24.892c-0.043-0.881-0.253-2.201-0.938-2.927c-0.356-0.378-0.8-0.555-1.395-0.555 c-0.552,0-1-0.448-1-1s0.448-1,1-1c1.139,0,2.126,0.411,2.856,1.189c1.196,1.275,1.442,3.209,1.48,4.292H38c0.552,0,1,0.448,1,1 v25.411h11.75c0.145-0.003,2.304-0.022,4.757,0.625l8.05-6.945l-20.743-6.786c-0.525-0.172-0.811-0.737-0.64-1.262 c0.172-0.524,0.737-0.81,1.262-0.64l29.042,9.5C73.002,32.182,73.289,32.747,73.117,33.272z M31.5,63.254v5.815 c0.667-0.291,1.5-1.028,1.5-2.904C33,64.403,32.244,63.581,31.5,63.254z M42.075,47.618c-4.1,0.877-6.744,3.632-8.367,6.184 c1.297,0.106,4.239,0.124,6.249-1.564C41.188,51.203,41.896,49.649,42.075,47.618z M55.423,40.196l-5.95,5.133h11.276 c-0.177-1.212-0.676-2.231-1.539-3.081C58.177,41.232,56.782,40.597,55.423,40.196z M73.353,29.756l-19.424-6.354 c-0.526-0.17-1.089,0.115-1.262,0.64c-0.171,0.525,0.115,1.09,0.64,1.262l19.424,6.354c0.104,0.034,0.208,0.05,0.311,0.05 c0.421,0,0.813-0.268,0.95-0.689C74.164,30.492,73.877,29.927,73.353,29.756z M15.327,53.94l1.426-8.377h-3.69 c-0.305,0-0.592-0.139-0.782-0.377c-0.189-0.238-0.261-0.55-0.192-0.847l2.188-9.544c0.104-0.454,0.508-0.776,0.975-0.776h8.937 c0.333,0,0.643,0.165,0.829,0.441c0.186,0.275,0.223,0.625,0.098,0.934l-2.444,6.048h3.267c0.387,0,0.739,0.224,0.904,0.574 c0.166,0.35,0.113,0.764-0.133,1.063l-9.625,11.667c-0.195,0.236-0.48,0.364-0.772,0.364c-0.14,0-0.282-0.029-0.416-0.091 C15.484,54.828,15.25,54.386,15.327,53.94z M17.937,43.563c0.294,0,0.574,0.13,0.764,0.355s0.271,0.522,0.222,0.813l-0.996,5.848 l5.888-7.138h-2.628c-0.333,0-0.643-0.165-0.829-0.441c-0.186-0.275-0.223-0.625-0.098-0.934l2.444-6.048h-6.658l-1.729,7.544 H17.937z M9.082,24.999c-2.389,0-4.333-1.944-4.333-4.333s1.944-4.333,4.333-4.333c2.39,0,4.333,1.944,4.333,4.333 S11.471,24.999,9.082,24.999z M8.082,22.765v-4.199c-0.785,0.376-1.333,1.172-1.333,2.099S7.296,22.389,8.082,22.765z M11.415,20.665c0-0.927-0.548-1.723-1.333-2.099v4.199C10.867,22.389,11.415,21.592,11.415,20.665z M29.918,24.999 c-2.39,0-4.333-1.944-4.333-4.333s1.944-4.333,4.333-4.333c2.389,0,4.333,1.944,4.333,4.333S32.308,24.999,29.918,24.999z M32.251,20.665c0-0.375-0.097-0.724-0.255-1.038l-2.586,3.312c0.164,0.036,0.332,0.059,0.507,0.059 C31.205,22.999,32.251,21.952,32.251,20.665z M27.585,20.665c0,0.375,0.097,0.724,0.255,1.038l2.586-3.313 c-0.164-0.036-0.332-0.059-0.507-0.059C28.632,18.332,27.585,19.379,27.585,20.665z M12.318,7.375h1.669 c0.316,0,0.599-0.199,0.706-0.496l0.633-1.759l1.097,4.813c0.074,0.322,0.349,0.558,0.678,0.582c0.325,0.024,0.635-0.17,0.753-0.479 l1-2.596l1.11,2.619c0.118,0.279,0.391,0.458,0.69,0.458c0.02,0,0.039-0.001,0.059-0.002c0.322-0.025,0.591-0.253,0.669-0.565 l1.377-5.506l0.494,2.337c0.073,0.347,0.379,0.595,0.734,0.595h2.5c0.414,0,0.75-0.336,0.75-0.75s-0.336-0.75-0.75-0.75h-1.892 l-1.041-4.923c-0.072-0.342-0.371-0.588-0.72-0.595c-0.342-0.019-0.657,0.229-0.741,0.568l-1.623,6.486l-0.959-2.263 c-0.119-0.281-0.384-0.447-0.703-0.458c-0.306,0.005-0.578,0.195-0.688,0.48l-0.782,2.031l-1.12-4.914 c-0.074-0.325-0.354-0.562-0.686-0.582c-0.328-0.027-0.638,0.181-0.751,0.495L13.46,5.875h-1.142c-0.414,0-0.75,0.336-0.75,0.75 S11.904,7.375,12.318,7.375z"/> </g>

</svg>