<?xml version="1.0" encoding="utf-8"?>
<!-- Uploaded to: SVG Repo, www.svgrepo.com, Generator: SVG Repo Mixer Tools -->
<svg fill="#000000" version="1.1" id="Layer_1" xmlns="http://www.w3.org/2000/svg" xmlns:xlink="http://www.w3.org/1999/xlink" 
	 width="800px" height="800px" viewBox="0 0 210 256" enable-background="new 0 0 210 256" xml:space="preserve">
<path d="M174.55,144.5L174.55,144.5c-1.4-4-5-6.5-9.2-6.5H159V23c0-11.708-9.292-21-21-21H25C12.57,2,2,12.57,2,25v183
	c0,11.9,10.95,22,22.75,22l114.213,0c1.207,0,2.27,0.984,2.18,2.188c-0.095,1.266-1.153,1.812-2.393,1.812h-45.5L128,254h80
	L174.55,144.5z M82.05,220.2c-3.199,0-5.599-2.399-5.6-5.598c-0.001-3.045,2.557-5.602,5.602-5.602
	c3.199,0.001,5.598,2.401,5.598,5.6C87.55,217.8,85.25,220.2,82.05,220.2z M144,138h-19.65c-5.3,0-9.8,4.7-9.8,10l0,0
	c0,5.3,4.5,10,9.8,10h19.8v42H18V31h126V138z M131.774,90.018l-17.131,17.187L97.458,90.018h10.624
	c0.016-0.378,0.021-0.636,0.021-1.017c0-15.101-12.292-27.388-27.393-27.388c-7.839,0-14.917,3.308-19.921,8.606l-9.294-9.257
	C58.862,53.275,69.227,48.52,80.7,48.52c22.342,0,40.53,18.139,40.53,40.48c0,0.381-0.032,0.639-0.043,1.017H131.774z
	 M53.317,90.018c0.6,14.579,12.674,26.376,27.394,26.376c7.251,0,13.851-2.83,18.755-7.451l9.299,9.262
	c-7.283,7.004-17.186,11.315-28.065,11.315c-21.959,0-39.855-17.687-40.462-39.502H29.626l17.131-16.943l17.185,16.943H53.317z"/>
</svg>