<!DOCTYPE svg PUBLIC "-//W3C//DTD SVG 1.1//EN" "http://www.w3.org/Graphics/SVG/1.1/DTD/svg11.dtd">
<!-- Uploaded to: SVG Repo, www.svgrepo.com, Transformed by: SVG Repo Mixer Tools -->
<svg version="1.1" id="Layer_1" xmlns="http://www.w3.org/2000/svg" xmlns:xlink="http://www.w3.org/1999/xlink" viewBox="0 0 512 512" xml:space="preserve" width="800px" height="800px" fill="#000000">
<g id="SVGRepo_bgCarrier" stroke-width="0"/>
<g id="SVGRepo_tracerCarrier" stroke-linecap="round" stroke-linejoin="round"/>
<g id="SVGRepo_iconCarrier"> <polygon style="fill:#ff5576;" points="501.801,263.113 442.409,195.312 382.755,195.312 382.755,340.375 501.801,340.375 "/> <rect x="172.112" y="143.237" style="fill:#fcca3d;" width="210.644" height="197.13"/> <g> <circle style="fill:#ff5576;" cx="230.604" cy="340.377" r="28.382"/> <circle style="fill:#ff5576;" cx="441.095" cy="340.377" r="28.382"/> </g> <g> <path style="fill:#4D3D36;" d="M403.893,350.574c4.485,16.339,19.459,28.382,37.203,28.382s32.718-12.043,37.204-28.382h23.502 c5.632,0,10.199-4.566,10.199-10.199v-77.261c0-2.472-0.899-4.861-2.527-6.72l-59.391-67.801c-1.937-2.21-4.733-3.479-7.672-3.479 h-49.455v-41.872c0-5.633-4.567-10.199-10.199-10.199H172.11c-5.632,0-10.199,4.566-10.199,10.199v13.762H63.818 c-5.632,0-10.199,4.566-10.199,10.199c0,5.633,4.567,10.199,10.199,10.199h98.092v132.21h-59.046 c-5.632,0-10.199,4.566-10.199,10.199c0,5.633,4.567,10.199,10.199,10.199h59.046v10.365c0,5.633,4.567,10.199,10.199,10.199 h21.288c4.485,16.339,19.459,28.382,37.203,28.382s32.718-12.043,37.204-28.382h136.089V350.574z M372.555,330.176H267.803 c-4.485-16.339-19.46-28.382-37.204-28.382s-32.717,12.043-37.203,28.382h-11.089V153.44h190.247v176.736H372.555z M230.6,358.558 c-10.026,0-18.182-8.157-18.182-18.183c0-10.026,8.156-18.183,18.182-18.183s18.183,8.157,18.183,18.183 C248.783,350.401,240.626,358.558,230.6,358.558z M441.094,358.558c-10.026,0-18.182-8.157-18.182-18.183 c0-10.026,8.156-18.183,18.182-18.183c10.026,0,18.183,8.157,18.183,18.183C459.277,350.401,451.121,358.558,441.094,358.558z M491.602,330.176h-13.304c-4.485-16.339-19.46-28.382-37.204-28.382s-32.717,12.043-37.203,28.382h-10.939V205.512h44.831 l53.818,61.437V330.176z"/> <path style="fill:#4D3D36;" d="M69.261,309.611h-5.442c-5.632,0-10.199,4.566-10.199,10.199s4.567,10.199,10.199,10.199h5.442 c5.632,0,10.199-4.566,10.199-10.199S74.894,309.611,69.261,309.611z"/> <path style="fill:#4D3D36;" d="M129.699,242.475c0-5.633-4.567-10.199-10.199-10.199H10.199C4.567,232.276,0,236.842,0,242.475 c0,5.633,4.567,10.199,10.199,10.199H119.5C125.132,252.674,129.699,248.108,129.699,242.475z"/> </g> </g>
</svg>