<?xml version="1.0" encoding="utf-8"?>
<!-- Uploaded to: SVG Repo, www.svgrepo.com, Generator: SVG Repo Mixer Tools -->
<svg fill="#000000" version="1.1" id="Layer_1" xmlns="http://www.w3.org/2000/svg" xmlns:xlink="http://www.w3.org/1999/xlink" 
	 viewBox="0 0 512 512" xml:space="preserve">
<g>
	<rect x="392.6" y="63.2" transform="matrix(0.6711 -0.7413 0.7413 0.6711 60.7268 326.8059)" width="12.2" height="63.4"/>
	<path d="M63.1,404.4L63.1,404.4c-8.8,7.5-14.3,18.7-14.3,31.1c0,22.5,18.3,40.8,40.8,40.8c13.9,0,26.2-7,33.6-17.6l119.2-137.4
		l-54.1-48.8L63.1,404.4z"/>
	<polygon points="325.8,130.1 249.2,211.4 300,257.2 373.1,172.9 	"/>
	<path d="M451,361.9c-13.2-12-28.9-17.5-47.1-16.6c-6.1,0.3-12.2,1.4-18.2,3.3L161.1,143c1.3-6,1.8-12.1,1.5-18.2
		c-0.9-18.3-8-33.5-21.2-45.4c-13.2-12-28.8-17.5-46.8-16.6c-6.3,0.3-12.4,1.5-18.5,3.5l52.3,47.3L82.1,165l-52.3-47.3
		c-1.4,6.2-2,12.4-1.7,18.5c0.9,18,7.9,33,21.1,44.9c13.2,12,28.8,17.5,46.8,16.6c6.6-0.3,13.1-1.6,19.5-3.9L327.1,387l-0.3,0.3
		l12.8,11.6c-1.6,6.6-2.2,13.1-1.9,19.5c0.9,18.2,7.9,33.2,21,45.2c13.1,12,28.8,17.5,46.9,16.6c6.1-0.3,12.2-1.5,18.2-3.5
		l-52.3-47.3l46.6-51.4l52.3,47.3c1.4-6.2,2-12.4,1.7-18.5C471.2,388.9,464.2,373.9,451,361.9z"/>
	<path d="M493.3,186.4c-1.3-9.7-5.7-18.4-12.2-25c-1.2-1.2-2.5-2.4-3.9-3.5l-22.3-20.2l-9.8,10.6l-1.1,1.2l-1.1-1l-67-60.7l0.1-0.1
		l-34.3-30.9l0,0c0,0,0,0,0,0L317,34.6l-38.8,43l59,53.2l0,0l67.9,61.5c0,0,0,0.1,0,0.1c0,0,0,0.1,0,0.1l-9.6,10.6l22.5,20.5
		c1.1,1.1,2.2,2.1,3.3,3.1c7.3,6,16.5,9.7,26.6,10.1c0.5,0,1.1,0,1.6,0c24.5,0,44.4-19.9,44.4-44.4
		C493.7,190.4,493.6,188.4,493.3,186.4z"/>
</g>
</svg>