<!DOCTYPE svg PUBLIC "-//W3C//DTD SVG 1.1//EN" "http://www.w3.org/Graphics/SVG/1.1/DTD/svg11.dtd">
<!-- Uploaded to: SVG Repo, www.svgrepo.com, Transformed by: SVG Repo Mixer Tools -->
<svg version="1.1" id="Layer_1" xmlns="http://www.w3.org/2000/svg" xmlns:xlink="http://www.w3.org/1999/xlink" viewBox="0 0 512 512" xml:space="preserve" width="800px" height="800px" fill="#a77958">
<g id="SVGRepo_bgCarrier" stroke-width="0"/>
<g id="SVGRepo_tracerCarrier" stroke-linecap="round" stroke-linejoin="round"/>
<g id="SVGRepo_iconCarrier"> <g transform="translate(1 1)"> <path style="fill:#fff;" d="M295.96,24.6v-8.533c0-5.12-3.413-8.533-7.68-8.533H179.053c-4.267,0-7.68,3.413-7.68,8.533V24.6 H61.293c-8.533,0-15.36,7.68-15.36,17.067V485.4c0,9.387,6.827,17.067,15.36,17.067h215.04c8.533,0,145.067-93.013,145.067-102.4 v-358.4c0-9.387-6.827-17.067-15.36-17.067H295.96z"/> <path style="fill:#fff;" d="M421.4,24.6h-15.36c8.533,0,15.36,7.68,15.36,17.067V383c0,9.387-6.827,17.067-15.36,17.067h15.36 c9.387,0,17.067-7.68,17.067-17.067V41.667C438.467,32.28,430.787,24.6,421.4,24.6"/> <path style="fill:#fff;" d="M45.933,485.4V41.667c0-9.387,6.827-17.067,15.36-17.067h-15.36c-9.387,0-17.067,7.68-17.067,17.067 V485.4c0,9.387,7.68,17.067,17.067,17.067h15.36C52.76,502.467,45.933,494.787,45.933,485.4"/> <path style="fill:#fff;" d="M293.4,75.8H173.933c-5.12,0-8.533-3.413-8.533-8.533v-51.2c0-5.12,3.413-8.533,8.533-8.533H293.4 c5.12,0,8.533,3.413,8.533,8.533v51.2C301.933,72.387,298.52,75.8,293.4,75.8"/> <path style="fill:#fff;" d="M301.933,58.733v8.533c0,5.12-3.413,8.533-8.533,8.533H173.933c-5.12,0-8.533-3.413-8.533-8.533 v-8.533H71.533c-5.12,0-8.533,3.413-8.533,8.533V459.8c0,5.12,3.413,8.533,8.533,8.533H344.6c5.12,0,59.733-54.613,59.733-59.733 V67.267c0-5.12-3.413-8.533-8.533-8.533H301.933z"/> <g> <path style="fill:#fff;" d="M191,246.467c0,14.507-11.093,25.6-25.6,25.6c-14.507,0-25.6-11.093-25.6-25.6 c0-14.507,11.093-25.6,25.6-25.6C179.907,220.867,191,231.96,191,246.467"/> <path style="fill:#fff;" d="M327.533,246.467c0,14.507-11.093,25.6-25.6,25.6s-25.6-11.093-25.6-25.6 c0-14.507,11.093-25.6,25.6-25.6S327.533,231.96,327.533,246.467"/> <path style="fill:#fff;" d="M348.013,186.733H119.32c-7.68,0-13.653,5.973-13.653,13.653v33.28 c0,7.68,5.973,13.653,13.653,13.653h20.48c0-14.507,11.093-25.6,25.6-25.6c14.507,0,25.6,11.093,25.6,25.6h85.333 c0-14.507,11.093-25.6,25.6-25.6s25.6,11.093,25.6,25.6h20.48c7.68,0,13.653-5.973,13.653-13.653v-33.28 C361.667,192.707,355.693,186.733,348.013,186.733"/> </g> <path style="fill:#fff;" d="M327.533,186.733H139.8l36.693-51.2c3.413-5.12,9.387-8.533,16.213-8.533h81.92 c5.973,0,11.947,3.413,16.213,8.533L327.533,186.733z"/> <path style="fill:#fff;" d="M342.893,480.28l-66.56,18.773l17.92-66.56L423.96,302.787c6.827-6.827,17.067-6.827,23.893,0 L472.6,326.68c6.827,6.827,6.827,17.067,0,23.893L342.893,480.28z"/> <path d="M273.773,511c-2.56,0-4.267-0.853-5.973-2.56c-3.413-3.413-3.413-8.533,0-11.947l5.973-5.973 c3.413-3.413,8.533-3.413,11.947,0c3.413,3.413,3.413,8.533,0,11.947l-5.973,5.973C278.04,510.147,276.333,511,273.773,511z"/> <path d="M267.8,508.44l23.04-82.773l131.413-131.413c9.387-9.387,26.453-9.387,35.84,0l23.893,23.893 c10.24,10.24,10.24,26.453,0,35.84L350.573,486.253L267.8,508.44z M306.2,434.2l-13.653,49.493l49.493-13.653l128-128 c3.413-3.413,3.413-8.533,0-11.947L446.147,306.2c-3.413-3.413-8.533-3.413-11.947,0L306.2,434.2z"/> <rect x="413.055" y="320.972" transform="matrix(-0.7072 0.707 -0.707 -0.7072 970.8005 308.1715)" width="17.067" height="68.266"/> <rect x="313.578" y="419.72" transform="matrix(-0.7071 0.7071 -0.7071 -0.7071 870.8004 547.0087)" width="17.067" height="68.266"/> <path d="M293.4,84.333H173.933c-9.387,0-17.067-7.68-17.067-17.067v-51.2C156.867,6.68,164.547-1,173.933-1H293.4 c9.387,0,17.067,7.68,17.067,17.067v51.2C310.467,76.653,302.787,84.333,293.4,84.333z M293.4,67.267V75.8V67.267L293.4,67.267z M173.933,16.067v51.2H293.4v-51.2H173.933z"/> <path d="M327.533,195.267H139.8c-3.413,0-5.973-1.707-7.68-4.267c-1.707-2.56-0.853-5.973,0.853-8.533l36.693-51.2 c5.12-7.68,13.653-11.947,23.04-11.947h81.92c9.387,0,17.92,4.267,23.04,11.947l36.693,51.2c1.707,2.56,1.707,5.973,0.853,8.533 C333.507,193.56,330.947,195.267,327.533,195.267z M156.013,178.2h154.453l-27.307-38.4c-1.707-2.56-5.12-4.267-9.387-4.267h-81.92 c-3.413,0-6.827,1.707-9.387,4.267L156.013,178.2z"/> <path d="M165.4,280.6c-18.773,0-34.133-15.36-34.133-34.133s15.36-34.133,34.133-34.133s34.133,15.36,34.133,34.133 S184.173,280.6,165.4,280.6z M165.4,229.4c-9.387,0-17.067,7.68-17.067,17.067s7.68,17.067,17.067,17.067 s17.067-7.68,17.067-17.067S174.787,229.4,165.4,229.4z"/> <path d="M301.933,280.6c-18.773,0-34.133-15.36-34.133-34.133s15.36-34.133,34.133-34.133s34.133,15.36,34.133,34.133 S320.707,280.6,301.933,280.6z M301.933,229.4c-9.387,0-17.067,7.68-17.067,17.067s7.68,17.067,17.067,17.067 S319,255.853,319,246.467S311.32,229.4,301.933,229.4z"/> <path d="M348.013,255h-20.48c-5.12,0-8.533-3.413-8.533-8.533c0-9.387-7.68-17.067-17.067-17.067s-17.067,7.68-17.067,17.067 c0,5.12-3.413,8.533-8.533,8.533H191c-5.12,0-8.533-3.413-8.533-8.533c0-9.387-7.68-17.067-17.067-17.067 s-17.067,7.68-17.067,17.067c0,5.12-3.413,8.533-8.533,8.533h-20.48c-12.8,0-22.187-9.387-22.187-22.187v-33.28 c0-11.947,9.387-22.187,22.187-22.187h229.547c11.947,0,22.187,9.387,22.187,22.187v33.28C370.2,245.613,360.813,255,348.013,255z M335.213,237.933h13.653c2.56,0,5.12-2.56,5.12-5.12v-33.28c0-2.56-2.56-5.12-5.12-5.12H119.32c-2.56,0-5.12,2.56-5.12,5.12v33.28 c0,2.56,2.56,5.12,5.12,5.12h13.653c3.413-14.507,17.067-25.6,33.28-25.6s29.013,11.093,33.28,25.6h70.827 c3.413-14.507,17.067-25.6,33.28-25.6S330.947,223.427,335.213,237.933z"/> <path d="M233.667,340.333h-128c-5.12,0-8.533-3.413-8.533-8.533s3.413-8.533,8.533-8.533h128c5.12,0,8.533,3.413,8.533,8.533 S238.787,340.333,233.667,340.333z"/> <path d="M233.667,383h-128c-5.12,0-8.533-3.413-8.533-8.533c0-5.12,3.413-8.533,8.533-8.533h128c5.12,0,8.533,3.413,8.533,8.533 C242.2,379.587,238.787,383,233.667,383z"/> <path d="M233.667,425.667h-128c-5.12,0-8.533-3.413-8.533-8.533s3.413-8.533,8.533-8.533h128c5.12,0,8.533,3.413,8.533,8.533 S238.787,425.667,233.667,425.667z"/> <path d="M233.667,195.267c-5.12,0-8.533-3.413-8.533-8.533V127c0-5.12,3.413-8.533,8.533-8.533c5.12,0,8.533,3.413,8.533,8.533 v59.733C242.2,191.853,238.787,195.267,233.667,195.267z"/> <path d="M276.333,511h-230.4c-14.507,0-25.6-11.093-25.6-25.6V41.667c0-14.507,11.093-25.6,25.6-25.6h110.933 C156.867,6.68,164.547-1,173.933-1H293.4c9.387,0,17.067,7.68,17.067,17.067H421.4c14.507,0,25.6,11.093,25.6,25.6v253.44 c0,4.267-3.413,8.533-7.68,8.533c-1.707,0-3.413,0.853-5.12,2.56l-128,128l-21.333,70.827C283.16,508.44,279.747,511,276.333,511z M45.933,33.133c-5.12,0-8.533,3.413-8.533,8.533V485.4c0,5.12,3.413,8.533,8.533,8.533H270.36l19.627-66.56 c0-1.707,0.853-2.56,1.707-3.413L421.4,294.253c2.56-2.56,5.12-4.267,7.68-5.12V41.667c0-5.12-3.413-8.533-8.533-8.533H301.933 c-5.12,0-8.533-3.413-8.533-8.533v-8.533H173.933V24.6c0,5.12-3.413,8.533-8.533,8.533H45.933z"/> <path d="M287.427,476.867H71.533c-9.387,0-17.067-7.68-17.067-17.067V67.267c0-9.387,7.68-17.067,17.067-17.067H165.4 c5.12,0,8.533,3.413,8.533,8.533v8.533H293.4v-8.533c0-5.12,3.413-8.533,8.533-8.533H395.8c9.387,0,17.067,7.68,17.067,17.067 V324.12c0,2.56-0.853,4.267-2.56,5.973L306.2,434.2l-10.24,35.84C295.107,474.307,291.693,476.867,287.427,476.867z M71.533,67.267 V459.8h209.92l8.533-31.573c0-1.707,0.853-2.56,2.56-3.413L395.8,320.707V67.267h-85.333c0,9.387-7.68,17.067-17.067,17.067 H173.933c-9.387,0-17.067-7.68-17.067-17.067H71.533z"/> </g> </g>
</svg>