<!DOCTYPE svg PUBLIC "-//W3C//DTD SVG 1.1//EN" "http://www.w3.org/Graphics/SVG/1.1/DTD/svg11.dtd">
<!-- Uploaded to: SVG Repo, www.svgrepo.com, Transformed by: SVG Repo Mixer Tools -->
<svg fill="#a77958" height="800px" width="800px" version="1.1" id="Capa_1" xmlns="http://www.w3.org/2000/svg" xmlns:xlink="http://www.w3.org/1999/xlink" viewBox="0 0 189.78 189.78" xml:space="preserve">
<g id="SVGRepo_bgCarrier" stroke-width="0"/>
<g id="SVGRepo_tracerCarrier" stroke-linecap="round" stroke-linejoin="round"/>
<g id="SVGRepo_iconCarrier"> <path d="M2,180.394c-1.104,0-2-0.896-2-2s0.896-2,2-2c22.911,0,41.55-18.639,41.55-41.55c0-22.91-18.639-41.55-41.55-41.55 c-1.104,0-2-0.896-2-2s0.896-2,2-2c25.117,0,45.55,20.434,45.55,45.55c0,0.713-0.017,1.42-0.049,2.125h21.021c1.104,0,2,0.896,2,2 v2.895h18.872l3.43-5.02h-17.89c-7.349,0-13.871-4.373-16.617-11.142c-2.744-6.764-6.987-14.599-12.61-23.288 C31.463,80.401,2.327,80.729,2.044,80.755c-1.074-0.019-2.018-0.853-2.042-1.957c-0.024-1.104,0.85-2.018,1.954-2.042 c1.28-0.037,31.632-0.437,47.11,23.485c5.76,8.901,10.12,16.962,12.958,23.958c2.131,5.252,7.198,8.646,12.911,8.646h21.652 c0.019,0,0.037,0.001,0.057,0h4.781c10.589,0,19.205-8.615,19.205-19.204v-3.763c0-5.309-4.319-9.628-9.628-9.628H59.791 c-1.104,0-2-0.896-2-2s0.896-2,2-2h40.317V48.236c0-11.431-8.2-20.989-19.498-22.729L1.696,13.363 c-1.092-0.168-1.84-1.189-1.672-2.281C0.191,9.99,1.208,9.24,2.304,9.41l78.915,12.145c13.263,2.042,22.89,13.263,22.89,26.682 V96.25h6.892c7.515,0,13.628,6.113,13.628,13.628v3.763c0,12.795-10.41,23.204-23.205,23.204h-3.756l-3.43,5.02h19.468 c1.104,0,2,0.896,2,2v7.215c0,1.104-0.896,2-2,2H70.523v2.895c0,1.104-0.896,2-2,2H41.23C33.294,171.383,18.679,180.394,2,180.394z M43.337,153.973h23.187V140.97H47.14C46.521,145.554,45.218,149.925,43.337,153.973z M70.523,149.079h41.184v-3.215H90.475 c-0.017,0-0.035,0-0.053,0H70.523V149.079z M2,160.099c-1.104,0-2-0.896-2-2s0.896-2,2-2c11.72,0,21.255-9.535,21.255-21.255 S13.72,113.591,2,113.591c-1.104,0-2-0.896-2-2s0.896-2,2-2c13.926,0,25.255,11.329,25.255,25.254 C27.255,148.77,15.926,160.099,2,160.099z M134.587,154.338c-6.285,0-11.398-5.113-11.398-11.397c0-6.424,5.329-11.652,11.818-11.39 c0.641-5.348,3.831-10.106,8.506-12.752c-2.29-3.306-3.529-7.225-3.529-11.274c0-10.896,8.814-19.771,19.687-19.871 c1.608-5.336,6.493-9.047,12.219-9.047c7.049,0,12.785,5.735,12.785,12.784c0,4.291-2.202,8.301-5.731,10.648 c0.521,1.795,0.784,3.633,0.784,5.485c0,1.233-0.118,2.468-0.35,3.688c6.215,2.255,10.403,8.121,10.403,14.893 c0,8.749-7.118,15.866-15.866,15.866c-2.316,0-4.576-0.499-6.649-1.459c-2.706,5.977-8.74,9.974-15.433,9.974 c-2.607,0-5.145-0.591-7.452-1.723C142.358,152.172,138.665,154.338,134.587,154.338z M134.587,135.542 c-4.079,0-7.398,3.319-7.398,7.398s3.319,7.397,7.398,7.397c3.174,0,5.99-2.024,7.005-5.036c0.199-0.592,0.663-1.056,1.254-1.256 c0.592-0.198,1.241-0.112,1.759,0.236c2.137,1.442,4.636,2.204,7.226,2.204c5.753,0,10.87-3.868,12.442-9.407 c0.175-0.616,0.634-1.111,1.235-1.332c0.601-0.222,1.271-0.14,1.803,0.217c1.957,1.313,4.24,2.008,6.602,2.008 c6.543,0,11.866-5.323,11.866-11.866c0-5.576-3.797-10.33-9.235-11.563c-0.539-0.122-1.004-0.462-1.283-0.938 c-0.28-0.477-0.35-1.048-0.193-1.578c0.437-1.479,0.658-2.993,0.658-4.502c0-1.929-0.36-3.842-1.07-5.688 c-0.375-0.975,0.063-2.072,1.005-2.522c3.044-1.454,5.012-4.564,5.012-7.923c0-4.844-3.941-8.784-8.785-8.784 c-4.352,0-7.997,3.122-8.667,7.424c-0.16,1.031-1.09,1.767-2.128,1.687c-0.41-0.031-0.82-0.064-1.238-0.064 c-8.752,0-15.872,7.12-15.872,15.872c0,3.942,1.473,7.73,4.147,10.668c0.447,0.492,0.622,1.174,0.464,1.82 c-0.157,0.646-0.625,1.171-1.249,1.402c-5.06,1.872-8.459,6.746-8.459,12.127c0.008,0.1,0.013,0.18,0.015,0.261 c0.012,0.624-0.268,1.218-0.756,1.605c-0.489,0.389-1.131,0.523-1.735,0.372C135.788,135.622,135.174,135.542,134.587,135.542z"/> </g>
</svg>