<svg xmlns="http://www.w3.org/2000/svg"  viewBox="0 0 24 24" width="24px" height="24px"><path d="M 8 3 C 5.25 3 3 5.25 3 8 L 3 16 C 3 18.75 5.25 21 8 21 L 11.423828 21 A 0.50005 0.50005 0 0 0 11.585938 21 L 16 21 C 18.75 21 21 18.75 21 16 L 21 8 C 21 5.25 18.75 3 16 3 L 8 3 z M 8 4 L 16 4 C 18.206 4 20 5.794 20 8 L 20 16 C 20 18.206 18.206 20 16 20 L 12.003906 20 L 12.003906 13.001953 L 15.5 13 A 0.50005 0.50005 0 1 0 15.5 12 L 12.003906 12.001953 L 12.003906 10.503906 C 12.003906 9.6688915 12.668891 9.0039063 13.503906 9.0039062 L 15.5 9.0039062 A 0.50005 0.50005 0 1 0 15.5 8.0039062 L 13.503906 8.0039062 C 12.128921 8.0039062 11.003906 9.1289216 11.003906 10.503906 L 11.003906 12.001953 L 9.5 12.001953 A 0.50005 0.50005 0 1 0 9.5 13.001953 L 11.003906 13.001953 L 11.003906 20 L 8 20 C 5.794 20 4 18.206 4 16 L 4 8 C 4 5.794 5.794 4 8 4 z"/></svg>