<!DOCTYPE svg PUBLIC "-//W3C//DTD SVG 1.1//EN" "http://www.w3.org/Graphics/SVG/1.1/DTD/svg11.dtd">

<!-- Uploaded to: SVG Repo, www.svgrepo.com, Transformed by: SVG Repo Mixer Tools -->
<svg width="800px" height="800px" viewBox="0 0 48 48" id="svg5" version="1.1" xml:space="preserve" xmlns="http://www.w3.org/2000/svg" xmlns:svg="http://www.w3.org/2000/svg" fill="#000000">

<g id="SVGRepo_bgCarrier" stroke-width="0"/>

<g id="SVGRepo_tracerCarrier" stroke-linecap="round" stroke-linejoin="round"/>

<g id="SVGRepo_iconCarrier"> <defs id="defs2"/> <g id="layer1" transform="translate(-170.00002,-89)"> <path d="m 193.99416,96.726562 a 1,1 0 0 0 -1,1 v 5.587888 a 1,1 0 0 0 1,1 1,1 0 0 0 1,-1 v -5.587888 a 1,1 0 0 0 -1,-1 z" id="path18904" style="color:#000000;fill:#808b9b;fill-opacity:1;fill-rule:evenodd;stroke-linecap:round;stroke-linejoin:round;stroke-miterlimit:4.1"/> <path d="m 203.67971,112 a 1,1 0 0 0 -1,1 1,1 0 0 0 1,1 h 5.58789 a 1,1 0 0 0 1,-1 1,1 0 0 0 -1,-1 z" id="path18894" style="color:#000000;fill:#808b9b;fill-opacity:1;fill-rule:evenodd;stroke-linecap:round;stroke-linejoin:round;stroke-miterlimit:4.1"/> <path d="m 194.00002,121.98828 a 0.99999499,0.99999499 0 0 0 -1.00195,0.99805 l -0.004,5.28711 a 0.99999499,0.99999499 0 0 0 1,1 0.99999499,0.99999499 0 0 0 1,-1 l 0.004,-5.28516 a 0.99999499,0.99999499 0 0 0 -0.99805,-1 z" id="path18884" style="color:#000000;fill:#808b9b;fill-opacity:1;fill-rule:evenodd;stroke-linecap:round;stroke-linejoin:round;stroke-miterlimit:4.1"/> <path d="m 178.73244,111.99805 a 1,1 0 0 0 -1,1 1,1 0 0 0 1,1 h 5.58594 a 1,1 0 0 0 1,-1 1,1 0 0 0 -1,-1 z" id="path18914" style="color:#000000;fill:#808b9b;fill-opacity:1;fill-rule:evenodd;stroke-linecap:round;stroke-linejoin:round;stroke-miterlimit:4.1"/> <path d="m 203.00588,98.994145 a 1.0001,1.0001 0 0 0 -0.93164,0.63867 l -2.32227,6.001955 a 1,1 0 0 0 0.57227,1.29295 1,1 0 0 0 1.29297,-0.57031 l 2.07422,-5.36327 h 5.56054 a 1,1 0 0 0 1,-0.999995 1,1 0 0 0 -1,-1 z" id="path16566" style="color:#000000;fill:#808b9b;fill-opacity:1;fill-rule:evenodd;stroke-linecap:round;stroke-linejoin:round;stroke-miterlimit:4.1"/> <path d="m 187.6758,119.06445 a 1,1 0 0 0 -1.29297,0.57227 L 184.30861,125 h -5.56054 a 1,1 0 0 0 -1,1 1,1 0 0 0 1,1 h 6.24609 a 1.0001,1.0001 0 0 0 0.93359,-0.63867 l 2.32032,-6.00391 a 1,1 0 0 0 -0.57227,-1.29297 z" id="path16571" style="color:#000000;fill:#808b9b;fill-opacity:1;fill-rule:evenodd;stroke-linecap:round;stroke-linejoin:round;stroke-miterlimit:4.1"/> <path d="m 200.32424,119.06445 a 1,1 0 0 0 -0.57227,1.29297 l 2.32227,6.00391 A 1.0001,1.0001 0 0 0 203.00588,127 h 6.24609 a 1,1 0 0 0 1,-1 1,1 0 0 0 -1,-1 h -5.56054 l -2.07422,-5.36328 a 1,1 0 0 0 -1.29297,-0.57227 z" id="path16575" style="color:#000000;fill:#808b9b;fill-opacity:1;fill-rule:evenodd;stroke-linecap:round;stroke-linejoin:round;stroke-miterlimit:4.1"/> <path d="m 178.74807,98.994145 a 1,1 0 0 0 -1,1 1,1 0 0 0 1,1.000005 h 5.56054 l 2.07422,5.36327 a 1,1 0 0 0 1.29297,0.57031 1,1 0 0 0 0.57227,-1.29296 l -2.32032,-6.001955 a 1.0001,1.0001 0 0 0 -0.93359,-0.63867 z" id="path16579-5" style="color:#000000;fill:#808b9b;fill-opacity:1;fill-rule:evenodd;stroke-linecap:round;stroke-linejoin:round;stroke-miterlimit:4.1"/> <path d="m 194.00002,128.27322 c -1.30526,0 -2.36339,1.05813 -2.36339,2.36339 0,1.30527 1.05813,2.36339 2.36339,2.36339 1.30526,0 2.36339,-1.05812 2.36339,-2.36339 0,-1.30526 -1.05813,-2.36339 -2.36339,-2.36339 z" id="path2985" style="color:#000000;fill:#e4e9ef;fill-opacity:1;fill-rule:evenodd;stroke-width:2.00001;stroke-linecap:round;stroke-linejoin:round;stroke-miterlimit:4.1"/> <path d="m 176.37574,102.36337 c 1.30526,0 2.3634,-1.05813 2.3634,-2.363378 0,-1.30526 -1.05814,-2.36339 -2.3634,-2.36338 -1.30526,-1e-5 -2.36339,1.05812 -2.36339,2.36338 0,1.305248 1.05813,2.363378 2.36339,2.363378 z" id="path3003" style="color:#000000;fill:#e4e9ef;fill-opacity:1;fill-rule:evenodd;stroke-width:2.00001;stroke-linecap:round;stroke-linejoin:round;stroke-miterlimit:4.1;-inkscape-stroke:none"/> <path d="m 203.68605,113.00001 c 0,5.34944 -4.33657,9.68603 -9.68603,9.68603 -5.34946,0 -9.68605,-4.33659 -9.68605,-9.68603 0,-5.34945 4.33659,-9.68605 9.68605,-9.68605 5.34946,0 9.68603,4.3366 9.68603,9.68605 z" id="path2702" style="color:#000000;fill:#f2a50c;fill-opacity:1;fill-rule:evenodd;stroke-width:2;stroke-linecap:round;stroke-linejoin:round;stroke-miterlimit:4.1;-inkscape-stroke:none"/> <path d="m 194,103.31445 c -5.34945,0 -9.68555,4.33611 -9.68555,9.68555 0,2.02514 0.62288,3.90449 1.68555,5.45898 a 9.4169769,9.2380867 0 0 0 5.09961,1.47461 9.4169769,9.2380867 0 0 0 9.41797,-9.23828 9.4169769,9.2380867 0 0 0 -2.9707,-6.70898 c -1.09884,-0.43284 -2.29432,-0.67188 -3.54688,-0.67188 z" id="path10628" style="fill:#fcca3d;fill-opacity:1;fill-rule:evenodd;stroke-width:2;stroke-linecap:round;stroke-linejoin:round;stroke-miterlimit:4.1"/> <path d="m 194,105.62891 a 1.0057658,0.9942559 0 0 0 -1.00586,0.99414 v 1.19335 c -1.31296,0.40955 -2.29102,1.59566 -2.29102,3.01173 0,1.76009 1.50988,3.16601 3.29688,3.16601 0.7455,0 1.28711,0.53939 1.28711,1.17773 0,0.63837 -0.54162,1.17774 -1.28711,1.17774 -0.74549,0 -1.28711,-0.53937 -1.28711,-1.17774 a 1.0057658,0.9942559 0 0 0 -1.00586,-0.99609 1.0057658,0.9942559 0 0 0 -1.00391,0.99609 c 10e-6,1.41607 0.97806,2.60218 2.29102,3.01173 v 1.19335 a 1.0057658,0.9942559 0 0 0 1.00586,0.99414 1.0057658,0.9942559 0 0 0 1.00586,-0.99414 v -1.19335 c 1.31385,-0.40904 2.29296,-1.59503 2.29297,-3.01173 0,-1.76008 -1.51183,-3.16601 -3.29883,-3.16601 -0.7455,0 -1.28711,-0.53936 -1.28711,-1.17773 0,-0.63837 0.5416,-1.17775 1.28711,-1.17774 0.7455,0 1.28711,0.53937 1.28711,1.17774 a 1.0057658,0.9942559 0 0 0 1.00586,0.99609 1.0057658,0.9942559 0 0 0 1.00586,-0.99609 c 0,-1.4167 -0.97912,-2.6027 -2.29297,-3.01173 v -1.19335 A 1.0057658,0.9942559 0 0 0 194,105.62891 Z" id="path14544" style="color:#000000;fill:#808b9b;fill-opacity:1;fill-rule:evenodd;stroke:none;stroke-width:0.999999;stroke-linecap:round;stroke-linejoin:round;stroke-miterlimit:4.1;stroke-opacity:1"/> <path d="m 196.3634,95.363388 a 2.3633878,2.3633878 0 0 1 -2.36338,2.363388 2.3633878,2.3633878 0 0 1 -2.36339,-2.363388 A 2.3633878,2.3633878 0 0 1 194.00002,93 a 2.3633878,2.3633878 0 0 1 2.36338,2.363388 z" id="path2961" style="color:#000000;fill:#e4e9ef;fill-opacity:1;fill-rule:evenodd;stroke-width:2.00001;stroke-linecap:round;stroke-linejoin:round;stroke-miterlimit:4.1"/> <path d="M 211.63663,115.36339 A 2.3633878,2.3633878 0 0 1 209.27324,113 a 2.3633878,2.3633878 0 0 1 2.36339,-2.36339 2.3633878,2.3633878 0 0 1 2.36339,2.36339 2.3633878,2.3633878 0 0 1 -2.36339,2.36339 z" id="path2973" style="color:#000000;fill:#ff5576;fill-opacity:1;fill-rule:evenodd;stroke-width:2.00001;stroke-linecap:round;stroke-linejoin:round;stroke-miterlimit:4.1"/> <path d="m 176.37447,110.63422 a 2.3633878,2.3633878 0 0 1 2.36338,2.36339 2.3633878,2.3633878 0 0 1 -2.36338,2.36339 2.3633878,2.3633878 0 0 1 -2.36339,-2.36339 2.3633878,2.3633878 0 0 1 2.36339,-2.36339 z" id="path2997" style="color:#000000;fill:#e4e9ef;fill-opacity:1;fill-rule:evenodd;stroke-width:2.00001;stroke-linecap:round;stroke-linejoin:round;stroke-miterlimit:4.1"/> <path d="m 211.63663,102.36339 c -1.30526,0 -2.36339,-1.05813 -2.36339,-2.36339 0,-1.305264 1.05813,-2.363389 2.36339,-2.363388 1.30526,-10e-7 2.36339,1.058124 2.36339,2.363388 0,1.30526 -1.05813,2.36339 -2.36339,2.36339 z" id="path2967" style="color:#000000;fill:#e4e9ef;fill-opacity:1;fill-rule:evenodd;stroke-width:2.00001;stroke-linecap:round;stroke-linejoin:round;stroke-miterlimit:4.1"/> <path d="m 176.37574,123.63021 c 1.30526,0 2.3634,1.05813 2.3634,2.36338 0,1.30526 -1.05814,2.36339 -2.3634,2.36338 -1.30526,1e-5 -2.36339,-1.05812 -2.36339,-2.36338 0,-1.30525 1.05813,-2.36338 2.36339,-2.36338 z" id="path2991" style="color:#000000;fill:#ff5576;fill-opacity:1;fill-rule:evenodd;stroke-width:2.00001;stroke-linecap:round;stroke-linejoin:round;stroke-miterlimit:4.1"/> <path d="m 211.63663,123.63019 c -1.30526,0 -2.36339,1.05813 -2.36339,2.36339 0,1.30527 1.05813,2.36339 2.36339,2.36339 1.30526,0 2.36339,-1.05812 2.36339,-2.36339 0,-1.30526 -1.05813,-2.36339 -2.36339,-2.36339 z" id="path2979" style="color:#000000;fill:#e4e9ef;fill-opacity:1;fill-rule:evenodd;stroke-width:2.00001;stroke-linecap:round;stroke-linejoin:round;stroke-miterlimit:4.1"/> </g> </g>

</svg>