<svg xmlns="http://www.w3.org/2000/svg"  viewBox="0 0 64 64" width="64px" height="64px"><path d="M 32 3.9726562 C 14.34 3.9726562 -0.02734375 15.425 -0.02734375 29.5 C -0.02734375 38 5.1895625 45.836562 13.976562 50.601562 L 11.007812 61.734375 C 10.899812 62.135375 11.046953 62.562453 11.376953 62.814453 C 11.559953 62.955453 11.779 63.027344 12 63.027344 C 12.177 63.027344 12.354625 62.980672 12.515625 62.888672 L 26.705078 54.673828 C 28.477078 54.908828 30.257 55.027344 32 55.027344 C 49.66 55.027344 64.027344 43.575 64.027344 29.5 C 64.027344 15.425 49.66 3.9726562 32 3.9726562 z M 32 6.0273438 C 48.527 6.0273438 61.972656 16.556 61.972656 29.5 C 61.972656 42.444 48.525047 52.972656 31.998047 52.972656 C 30.235047 52.972656 28.431672 52.845797 26.638672 52.591797 C 26.410672 52.559797 26.179469 52.60375 25.980469 52.71875 L 13.630859 59.869141 L 16.171875 50.339844 C 16.296875 49.871844 16.077484 49.380156 15.646484 49.160156 C 7.1184844 44.797156 2.0273438 37.447 2.0273438 29.5 C 2.0273438 16.557 15.473 6.0273438 32 6.0273438 z M 32.009766 9 C 31.457766 9 31.009766 9.4460469 31.009766 9.9980469 L 31.007812 11.998047 C 31.007812 12.551047 31.454812 13 32.007812 13 C 32.559812 13 33.007812 12.553953 33.007812 12.001953 L 33.009766 10.001953 C 33.009766 9.4489531 32.562766 9 32.009766 9 z M 26.390625 9.5019531 C 25.846625 9.6009531 25.485984 10.121063 25.583984 10.664062 L 25.939453 12.632812 C 26.026453 13.115812 26.448828 13.455078 26.923828 13.455078 C 26.981828 13.455078 27.041563 13.449453 27.101562 13.439453 C 27.645563 13.340453 28.006203 12.820344 27.908203 12.277344 L 27.552734 10.308594 C 27.453734 9.7655938 26.930625 9.4009531 26.390625 9.5019531 z M 37.626953 9.5039062 C 37.085953 9.4109062 36.563844 9.7665469 36.464844 10.310547 L 36.107422 12.277344 C 36.009422 12.820344 36.369109 13.341406 36.912109 13.441406 C 36.973109 13.452406 37.03375 13.457031 37.09375 13.457031 C 37.56775 13.457031 37.988172 13.118766 38.076172 12.634766 L 38.433594 10.667969 C 38.531594 10.124969 38.169953 9.6039062 37.626953 9.5039062 z M 21.320312 10.966797 C 21.190609 10.963203 21.059641 10.984906 20.931641 11.035156 C 20.417641 11.235156 20.163281 11.815078 20.363281 12.330078 L 21.089844 14.193359 C 21.244844 14.589359 21.622484 14.830078 22.021484 14.830078 C 22.143484 14.830078 22.266766 14.809719 22.384766 14.761719 C 22.898766 14.561719 23.153125 13.981797 22.953125 13.466797 L 22.226562 11.603516 C 22.075813 11.217266 21.709422 10.977578 21.320312 10.966797 z M 42.693359 10.972656 C 42.30425 10.982922 41.939813 11.222375 41.789062 11.609375 L 41.060547 13.472656 C 40.858547 13.986656 41.113906 14.566578 41.628906 14.767578 C 41.747906 14.814578 41.871187 14.835938 41.992188 14.835938 C 42.392187 14.835937 42.769828 14.594219 42.923828 14.199219 L 43.652344 12.337891 C 43.854344 11.823891 43.598984 11.243969 43.083984 11.042969 C 42.955984 10.992219 42.823062 10.969234 42.693359 10.972656 z M 16.232422 13.507812 C 16.104828 13.531937 15.978281 13.581203 15.863281 13.658203 C 15.403281 13.963203 15.277984 14.584922 15.583984 15.044922 L 16.689453 16.710938 C 16.881453 17.000937 17.199437 17.158203 17.523438 17.158203 C 17.713437 17.158203 17.904219 17.103234 18.074219 16.990234 C 18.534219 16.685234 18.661469 16.065469 18.355469 15.605469 L 17.25 13.939453 C 17.0205 13.594453 16.615203 13.435438 16.232422 13.507812 z M 47.78125 13.517578 C 47.398047 13.445437 46.993172 13.603016 46.763672 13.947266 L 45.65625 15.613281 C 45.35025 16.074281 45.475547 16.694 45.935547 17 C 46.106547 17.113 46.298281 17.167969 46.488281 17.167969 C 46.812281 17.167969 47.130266 17.009703 47.322266 16.720703 L 48.429688 15.054688 C 48.735687 14.593688 48.610391 13.973969 48.150391 13.667969 C 48.035141 13.591469 47.908984 13.541625 47.78125 13.517578 z M 10.990234 20.972656 C 9.3912344 20.972656 8.0898438 22.37275 8.0898438 24.09375 C 8.0898438 25.81475 9.3902344 27.214844 10.990234 27.214844 L 12.060547 27.214844 L 12.060547 36.486328 C 12.060547 38.438328 13.523266 40.027344 15.322266 40.027344 C 16.624858 40.027344 17.744031 39.186974 18.265625 37.984375 C 18.732658 39.182841 19.829955 40.027344 21.105469 40.027344 C 22.511469 40.027344 23.707031 39.060953 24.082031 37.626953 L 24.371094 36.541016 L 26.888672 36.541016 L 27.179688 37.615234 C 27.596688 39.057234 28.809172 40.027344 30.201172 40.027344 C 30.976137 40.027344 31.677018 39.711002 32.226562 39.207031 C 32.754449 39.7281 33.480276 40.027344 34.361328 40.027344 L 41.058594 40.027344 C 41.831087 40.027344 42.52988 39.695255 43.054688 39.164062 C 43.617724 39.694573 44.343547 40.027344 45.146484 40.027344 C 46.925484 40.027344 48.371094 38.467781 48.371094 36.550781 L 48.371094 35.451172 L 49.925781 38.337891 C 50.513781 39.379891 51.578125 40.027344 52.703125 40.027344 C 54.472125 40.027344 55.910156 38.457344 55.910156 36.527344 C 55.910156 35.921344 55.759172 35.325375 55.451172 34.734375 L 52.423828 29.232422 L 54.597656 26.097656 C 54.993656 25.554656 55.212891 24.864203 55.212891 24.158203 C 55.212891 22.401203 53.885859 20.972656 52.255859 20.972656 C 51.323859 20.972656 50.405328 21.479969 49.861328 22.292969 L 48.371094 24.515625 L 48.371094 24.449219 C 48.371094 22.532219 46.924484 20.972656 45.146484 20.972656 C 43.377484 20.972656 41.939453 22.532219 41.939453 24.449219 L 41.939453 33.841797 C 41.659961 33.746312 41.366917 33.681641 41.058594 33.681641 L 37.820312 33.681641 L 37.820312 24.513672 C 37.820313 22.561672 36.357547 20.972656 34.560547 20.972656 C 32.763547 20.972656 31.300781 22.561672 31.300781 24.513672 L 31.300781 29.171875 L 29.84375 24.273438 C 29.26975 22.299437 27.611797 20.972656 25.716797 20.972656 C 24.336982 20.972656 23.089788 21.673057 22.285156 22.802734 C 21.827465 21.726476 20.823465 20.972656 19.654297 20.972656 L 10.990234 20.972656 z M 10.990234 23.027344 L 19.654297 23.027344 C 20.111297 23.027344 20.498047 23.51575 20.498047 24.09375 C 20.498047 24.67175 20.111297 25.158203 19.654297 25.158203 L 17.554688 25.158203 C 16.987687 25.158203 16.527344 25.618547 16.527344 26.185547 L 16.527344 36.486328 C 16.527344 37.291328 15.975266 37.970703 15.322266 37.970703 C 14.668266 37.970703 14.115234 37.292328 14.115234 36.486328 L 14.115234 26.185547 C 14.115234 25.618547 13.654891 25.158203 13.087891 25.158203 L 10.990234 25.158203 C 10.531234 25.158203 10.144531 24.67175 10.144531 24.09375 C 10.144531 23.51575 10.531234 23.027344 10.990234 23.027344 z M 25.71875 23.027344 C 26.68975 23.027344 27.557 23.758516 27.875 24.853516 L 31.224609 36.107422 C 31.278609 36.310422 31.300781 36.465328 31.300781 36.611328 C 31.300781 37.348328 30.798172 37.972656 30.201172 37.972656 C 29.734172 37.972656 29.313203 37.6005 29.158203 37.0625 L 28.667969 35.244141 C 28.546969 34.797141 28.139781 34.486328 27.675781 34.486328 L 23.583984 34.486328 C 23.117984 34.486328 22.710797 34.800047 22.591797 35.248047 L 22.097656 37.101562 C 21.960656 37.629562 21.571422 37.972656 21.107422 37.972656 C 20.552422 37.972656 20.082031 37.387313 20.082031 36.695312 C 20.082031 36.559313 20.103437 36.424578 20.148438 36.267578 L 23.544922 24.84375 C 23.861922 23.75675 24.73575 23.027344 25.71875 23.027344 z M 34.560547 23.027344 C 35.225547 23.027344 35.765625 23.693672 35.765625 24.513672 L 35.765625 34.707031 C 35.765625 35.274031 36.225969 35.734375 36.792969 35.734375 L 41.058594 35.734375 C 41.536594 35.734375 41.939453 36.24275 41.939453 36.84375 C 41.939453 37.45575 41.536594 37.972656 41.058594 37.972656 L 34.361328 37.972656 C 34.060328 37.972656 33.355469 37.971797 33.355469 36.716797 L 33.355469 24.511719 C 33.355469 23.706719 33.907547 23.027344 34.560547 23.027344 z M 45.146484 23.027344 C 45.781484 23.027344 46.316406 23.678219 46.316406 24.449219 L 46.316406 27.890625 C 46.316406 28.342625 46.613875 28.741047 47.046875 28.873047 C 47.477875 29.006047 47.946266 28.837891 48.197266 28.462891 L 51.568359 23.435547 C 51.733359 23.190547 52.010813 23.027344 52.257812 23.027344 C 52.746813 23.027344 53.158203 23.545203 53.158203 24.158203 C 53.158203 24.428203 53.079781 24.695203 52.925781 24.908203 L 50.373047 28.585938 C 50.150047 28.905937 50.130359 29.324016 50.318359 29.666016 L 53.642578 35.703125 C 53.786578 35.980125 53.855469 36.250344 53.855469 36.527344 C 53.855469 37.310344 53.328125 37.972656 52.703125 37.972656 C 52.318125 37.972656 51.939609 37.725703 51.724609 37.345703 L 49.175781 32.613281 C 49.006781 32.300281 48.687031 32.095219 48.332031 32.074219 C 48.311031 32.073219 48.291484 32.072266 48.271484 32.072266 C 47.937484 32.072266 47.622641 32.235719 47.431641 32.511719 L 46.503906 33.833984 C 46.381906 34.006984 46.316406 34.212828 46.316406 34.423828 L 46.316406 36.550781 C 46.316406 37.322781 45.781484 37.972656 45.146484 37.972656 C 44.521484 37.972656 43.994141 37.321781 43.994141 36.550781 L 43.994141 24.449219 C 43.994141 23.677219 44.521484 23.027344 45.146484 23.027344 z M 20.767578 26.974609 L 18.582031 34.322266 L 18.582031 27.214844 L 19.654297 27.214844 C 20.048399 27.214844 20.424631 27.12891 20.767578 26.974609 z M 25.628906 27 C 25.203906 27 24.834375 27.291125 24.734375 27.703125 C 24.669375 27.970125 24.596625 28.249688 24.515625 28.554688 L 23.898438 30.837891 C 23.823438 31.114891 23.881641 31.410672 24.056641 31.638672 C 24.230641 31.866672 24.500109 32 24.787109 32 L 26.470703 32 C 26.756703 32 27.026172 31.866672 27.201172 31.638672 C 27.375172 31.410672 27.435375 31.114891 27.359375 30.837891 L 26.742188 28.556641 C 26.660187 28.248641 26.588438 27.968172 26.523438 27.701172 C 26.423437 27.290172 26.053906 27 25.628906 27 z"/></svg>