<svg width="26" height="26" viewBox="0 0 26 26" fill="none" xmlns="http://www.w3.org/2000/svg">
<path fill-rule="evenodd" clip-rule="evenodd" d="M12.7584 14.5869C12.0336 14.5869 11.3111 14.3474 10.7065 13.8686L5.84779 9.95128C5.49787 9.66962 5.44371 9.1572 5.72429 8.80837C6.00704 8.46062 6.51837 8.40537 6.86721 8.68595L11.7216 12.5989C12.3316 13.0821 13.1906 13.0821 13.8049 12.5946L18.6106 8.68812C18.9594 8.4032 19.4707 8.45737 19.7546 8.8062C20.0373 9.15395 19.9842 9.66528 19.6365 9.94912L14.8221 13.8621C14.2133 14.3453 13.4853 14.5869 12.7584 14.5869Z" fill="#E1E1E1"/>
<path fill-rule="evenodd" clip-rule="evenodd" d="M18.0469 21.6667C18.0491 21.6645 18.0578 21.6667 18.0643 21.6667C19.3003 21.6667 20.3967 21.2247 21.2373 20.3851C22.2134 19.4134 22.7497 18.0169 22.7497 16.4537V9.01335C22.7497 5.9876 20.7715 3.79169 18.0469 3.79169H7.41076C4.68617 3.79169 2.70801 5.9876 2.70801 9.01335V16.4537C2.70801 18.0169 3.24534 19.4134 4.22034 20.3851C5.06101 21.2247 6.15842 21.6667 7.39342 21.6667H18.0469ZM7.39017 23.2917C5.71859 23.2917 4.22576 22.685 3.07309 21.5367C1.78934 20.2562 1.08301 18.4514 1.08301 16.4537V9.01335C1.08301 5.1101 3.80326 2.16669 7.41076 2.16669H18.0469C21.6544 2.16669 24.3747 5.1101 24.3747 9.01335V16.4537C24.3747 18.4514 23.6683 20.2562 22.3846 21.5367C21.233 22.6839 19.7391 23.2917 18.0643 23.2917H7.39017Z" fill="#050B20"/>
</svg>
