<svg width="22" height="20" viewBox="0 0 22 20" fill="none" xmlns="http://www.w3.org/2000/svg">
<path d="M20.1324 12.3583L19.3544 11.9692C19.6766 11.6589 19.8815 11.2281 19.8815 10.7466V1.77424C19.8815 0.834202 19.1176 0.0697021 18.1787 0.0697021H11.5982C10.6593 0.0697021 9.89551 0.834202 9.89551 1.77424V7.84441H8.74578C8.09953 7.84441 7.51814 8.20443 7.22801 8.78583L6.02008 11.2141C5.91856 11.402 5.75218 11.5345 5.5567 11.5851L2.20858 12.4225C1.4482 12.6207 0.916992 13.3009 0.916992 14.0777V16.4331C0.916992 17.3695 1.68447 18.1315 2.62726 18.1315H3.44378C3.78387 19.1815 4.77914 19.9302 5.92085 19.9302C7.05087 19.9302 8.03812 19.1886 8.3837 18.1315H13.02C13.3589 19.1815 14.3491 19.9302 15.4842 19.9302C16.6186 19.9302 17.6077 19.1831 17.9484 18.1315H19.3729C20.3162 18.1315 21.0837 17.3695 21.0837 16.4331V13.8749C21.0837 13.2429 20.7101 12.6477 20.1324 12.3583ZM10.9091 1.77424C10.9091 1.39314 11.2183 1.08399 11.5982 1.08399H18.1785C18.5589 1.08399 18.8681 1.39314 18.8681 1.77424V10.7463C18.8681 11.0223 18.7024 11.2569 18.4673 11.3669C18.4647 11.3619 18.4604 11.3587 18.4581 11.3536L17.1661 8.78422C16.8814 8.21406 16.2858 7.84418 15.6487 7.84418H10.9091V1.77424ZM7.48376 17.5551C7.37674 18.3308 6.70437 18.9159 5.92085 18.9159C5.12908 18.9159 4.45189 18.3308 4.34601 17.5602C4.33547 17.4797 4.32447 17.4007 4.32447 17.3202C4.32447 16.448 5.04062 15.7381 5.92085 15.7381C6.7942 15.7381 7.50416 16.448 7.50416 17.3202C7.50416 17.3968 7.49362 17.4722 7.48376 17.5551ZM17.0473 17.5551C16.9403 18.3308 16.2686 18.9159 15.4844 18.9159C14.7002 18.9159 14.0285 18.3308 13.9227 17.5602C13.9121 17.4797 13.9016 17.4007 13.9016 17.3202C13.9016 16.448 14.6115 15.7381 15.4844 15.7381C16.3578 15.7381 17.0677 16.448 17.0677 17.3202C17.0677 17.4004 17.0565 17.4797 17.0473 17.5551ZM20.0698 16.4331C20.0698 16.8103 19.7575 17.1172 19.3727 17.1172H18.0603C17.9551 15.7818 16.8468 14.7235 15.4842 14.7235C14.1223 14.7235 13.0138 15.7818 12.9081 17.1172H8.49691C8.39172 15.7818 7.28347 14.7235 5.92085 14.7235C4.55203 14.7235 3.43805 15.7818 3.33172 17.1172H2.62726C2.24318 17.1172 1.93083 16.8103 1.93083 16.4331V14.0777C1.93083 13.7574 2.14487 13.4865 2.45905 13.4035L5.80764 12.5662C5.95178 12.5288 6.08608 12.4672 6.21464 12.3945V12.45H13.9912V11.4357H7.04101L8.1346 9.23752C8.2533 9.0001 8.48224 8.85893 8.74578 8.85893H15.649C15.905 8.85893 16.1451 9.00743 16.2606 9.23866L17.5472 11.798C17.6993 12.1195 17.9491 12.3794 18.311 12.5799L19.6784 13.264C19.9128 13.3815 20.0698 13.6265 20.0698 13.8752V16.4331Z" fill="white"/>
<path d="M12.2881 3.15723H17.4886V4.17152H12.2881V3.15723Z" fill="white"/>
<path d="M12.2881 5.69067H17.4886V6.70497H12.2881V5.69067Z" fill="white"/>
<path d="M4.12164 5.2738H4.51924C4.87858 5.2738 5.17122 5.56576 5.17122 5.92578C5.17122 6.2858 4.87858 6.57776 4.51924 6.57776H2.68774V7.59205H3.81341V8.78211H4.82655V7.52972C5.59289 7.38053 6.18483 6.73565 6.18483 5.92578C6.18483 5.00659 5.43774 4.25951 4.51924 4.25951H4.12164C3.76162 4.25951 3.46966 3.96755 3.46966 3.60753C3.46966 3.24888 3.76162 2.95693 4.12164 2.95693H5.95314V1.9424H4.82678V0.623779H3.81364V2.00474C3.0473 2.15415 2.45605 2.7988 2.45605 3.60753C2.45605 4.52672 3.20314 5.2738 4.12164 5.2738Z" fill="white"/>
</svg>
