<svg width="18" height="18" viewBox="0 0 18 18" fill="none" xmlns="http://www.w3.org/2000/svg">
<g clip-path="url(#clip0_163_10380)">
<path d="M7.8047 17.4287C7.80429 17.4287 7.80378 17.4287 7.80326 17.4287C7.2752 17.4283 6.77865 17.2223 6.40539 16.8484L1.14802 11.5835C0.379045 10.8131 0.379045 9.55955 1.14802 8.78923L8.23503 1.68863C8.96538 0.956841 9.93715 0.553711 10.9712 0.553711H15.4676C16.5579 0.553711 17.4451 1.44072 17.4451 2.53125V7.01377C17.4451 8.04714 17.0424 9.01851 16.3113 9.74875L9.20227 16.8504C8.8288 17.2233 8.33246 17.4287 7.8047 17.4287ZM10.9712 1.87207C10.2898 1.87207 9.64948 2.1377 9.16818 2.61993L2.08107 9.72053C1.82471 9.97741 1.82471 10.3952 2.08107 10.652L7.33844 15.9169C7.46276 16.0414 7.62817 16.1102 7.80429 16.1104H7.80481C7.98073 16.1104 8.14614 16.0419 8.27056 15.9176L15.3796 8.81612C15.8614 8.33492 16.1267 7.69469 16.1267 7.01377V2.53125C16.1267 2.16777 15.831 1.87207 15.4676 1.87207H10.9712ZM12.6659 7.24438C11.5755 7.24438 10.6884 6.35738 10.6884 5.26685C10.6884 4.17632 11.5755 3.28931 12.6659 3.28931C13.7564 3.28931 14.6435 4.17632 14.6435 5.26685C14.6435 6.35738 13.7564 7.24438 12.6659 7.24438ZM12.6659 4.60767C12.3025 4.60767 12.0068 4.90337 12.0068 5.26685C12.0068 5.63032 12.3025 5.92603 12.6659 5.92603C13.0295 5.92603 13.3251 5.63032 13.3251 5.26685C13.3251 4.90337 13.0295 4.60767 12.6659 4.60767Z" fill="#050B20"/>
</g>
<defs>
<clipPath id="clip0_163_10380">
<rect width="18" height="18" fill="white"/>
</clipPath>
</defs>
</svg>
