<?xml version="1.0" encoding="utf-8"?>
<!-- Uploaded to: SVG Repo, www.svgrepo.com, Generator: SVG Repo Mixer Tools -->
<svg fill="#000000" version="1.1" id="Layer_1" xmlns="http://www.w3.org/2000/svg" xmlns:xlink="http://www.w3.org/1999/xlink" 
	 width="800px" height="800px" viewBox="0 0 210 256" enable-background="new 0 0 210 256" xml:space="preserve">
<path d="M174.55,144.5L174.55,144.5c-1.4-4-5-6.5-9.2-6.5H159V23c0-11.708-9.292-21-21-21H25C12.57,2,2,12.57,2,25v183
	c0,11.9,10.95,22,22.75,22l114.213,0c1.207,0,2.27,0.984,2.18,2.188c-0.095,1.266-1.153,1.812-2.393,1.812h-45.5L128,254h80
	L174.55,144.5z M82.05,220.2c-3.199,0-5.599-2.399-5.6-5.598c-0.001-3.045,2.557-5.602,5.602-5.602
	c3.199,0.001,5.598,2.401,5.598,5.6C87.55,217.8,85.25,220.2,82.05,220.2z M144,138h-19.65c-5.3,0-9.8,4.7-9.8,10l0,0
	c0,5.3,4.5,10,9.8,10h19.8v42H18V31h126V138z M122.342,108.912h-4.783v7.971c0,8.836-7.142,15.943-15.943,15.943h-7.974v7.971
	H49.005l0.026-31.545c-7.838-7.437-12.732-17.968-12.732-29.652c0-17.893,11.471-33.129,27.435-38.637V67.04
	c-7.096,2.991-12.09,10.018-12.09,18.189c0,10.431,8.139,18.993,18.4,19.679c2.171,7.948,9.451,13.809,18.078,13.809h8.697
	c0.806,2.133,2.861,3.652,5.276,3.652c3.118,0,5.645-2.527,5.645-5.645c0-3.118-2.527-5.645-5.645-5.645
	c-2.415,0-4.47,1.519-5.276,3.652h-8.697c-6.463,0-11.965-4.179-13.957-9.975c9.56-1.361,16.937-9.598,16.937-19.528
	c0-8.373-5.246-15.54-12.622-18.399V38.797c10.523,0.408,20.035,4.876,27.027,11.831c7.34,7.301,11.941,17.227,12.052,28.391v5.979
	l7.792,19.589C126.188,106.685,124.595,108.912,122.342,108.912z M110.759,84.982c0-2.431-1.959-4.398-4.381-4.398
	s-4.381,1.967-4.381,4.398c0,2.431,1.959,4.398,4.381,4.398S110.76,87.413,110.759,84.982z M71.372,94.994
	c5.384,0,9.765-4.38,9.765-9.765c0-5.384-4.381-9.765-9.765-9.765c-5.384,0-9.765,4.381-9.765,9.765
	C61.607,90.614,65.988,94.994,71.372,94.994z"/>
</svg>