<svg width="26" height="26" viewBox="0 0 26 26" fill="none" xmlns="http://www.w3.org/2000/svg">
<path d="M23.5121 10.9886C23.1037 10.9886 22.7527 10.6821 22.7061 10.2671C22.2944 6.6098 19.4528 3.77147 15.7955 3.36522C15.3502 3.31538 15.0285 2.91455 15.0783 2.46822C15.1271 2.02297 15.5268 1.69038 15.9753 1.75105C20.3921 2.24072 23.8241 5.66838 24.3202 10.0851C24.3712 10.5315 24.0494 10.9333 23.6042 10.9832C23.5738 10.9864 23.5424 10.9886 23.5121 10.9886Z" fill="#E1E1E1"/>
<path d="M19.6762 11.0003C19.2949 11.0003 18.9558 10.7316 18.88 10.3438C18.568 8.74044 17.3319 7.50435 15.7307 7.19344C15.2898 7.10785 15.0027 6.6821 15.0883 6.24119C15.1739 5.80027 15.6105 5.51319 16.0406 5.59877C18.295 6.03644 20.0359 7.77627 20.4747 10.0318C20.5602 10.4738 20.2732 10.8995 19.8333 10.9851C19.7803 10.9949 19.7283 11.0003 19.6762 11.0003Z" fill="#E1E1E1"/>
<path fill-rule="evenodd" clip-rule="evenodd" d="M8.1053 17.8102C13.2111 22.917 16.6106 24.256 18.7578 24.256C19.8173 24.256 20.5734 23.9299 21.0772 23.5681C21.0999 23.5551 23.4313 22.1294 23.8397 19.9714C24.0325 18.9585 23.7509 17.9564 23.0272 17.0724C20.0459 13.453 18.527 13.791 16.85 14.6068C15.8198 15.1116 15.0062 15.5038 12.7084 13.2082C10.412 10.9108 10.8081 10.0971 11.3096 9.067C12.1265 7.39 12.4625 5.8708 8.84197 2.8873C7.96013 2.16689 6.96455 1.88522 5.95272 2.0748C3.82613 2.47239 2.39397 4.7658 2.39397 4.7658C1.2543 6.36589 0.480802 10.1868 8.1053 17.8102ZM6.28422 3.66514C6.37955 3.64997 6.4738 3.6413 6.56697 3.6413C6.99163 3.6413 7.40113 3.80705 7.80955 4.14289C10.7291 6.54786 10.3597 7.30621 9.84839 8.35595C9.08031 9.93437 8.67838 11.4749 11.559 14.3576C14.4429 17.2404 15.9844 16.8384 17.5607 16.0682L17.5633 16.0669C18.6117 15.5573 19.3697 15.1888 21.7716 18.1049C22.1822 18.6054 22.3393 19.1059 22.2504 19.6334C22.0457 20.8468 20.6352 21.9334 20.2084 22.1977C18.6798 23.2875 14.9997 22.4068 9.25363 16.6619C3.5098 10.9169 2.62797 7.23689 3.7568 5.6498C3.98213 5.28255 5.07305 3.86989 6.28422 3.66514Z" fill="#050B20"/>
</svg>
