<svg width="18" height="18" viewBox="0 0 18 18" fill="none" xmlns="http://www.w3.org/2000/svg">
<g clip-path="url(#clip0_180_13467)">
<path d="M12.6 18H5.4C3.96829 17.9985 2.59564 17.4291 1.58327 16.4167C0.570894 15.4044 0.00148904 14.0317 0 12.6V5.4C0.00148904 3.96829 0.570894 2.59564 1.58327 1.58327C2.59564 0.570894 3.96829 0.00148904 5.4 0L12.6 0C14.0317 0.00148904 15.4044 0.570894 16.4167 1.58327C17.4291 2.59564 17.9985 3.96829 18 5.4V12.6C17.9985 14.0317 17.4291 15.4044 16.4167 16.4167C15.4044 17.4291 14.0317 17.9985 12.6 18ZM5.4 1.19813C4.28605 1.19961 3.21815 1.64279 2.43047 2.43047C1.64279 3.21815 1.19961 4.28605 1.19813 5.4V12.6C1.19961 13.7139 1.64279 14.7818 2.43047 15.5695C3.21815 16.3572 4.28605 16.8004 5.4 16.8019H12.6C13.7139 16.8004 14.7818 16.3572 15.5695 15.5695C16.3572 14.7818 16.8004 13.7139 16.8019 12.6V5.4C16.8004 4.28605 16.3572 3.21815 15.5695 2.43047C14.7818 1.64279 13.7139 1.19961 12.6 1.19813H5.4Z" fill="white"/>
<path d="M9.00039 10.1981C8.28838 10.1981 7.59236 9.98697 7.00034 9.5914C6.40832 9.19583 5.9469 8.63358 5.67443 7.97577C5.40195 7.31796 5.33066 6.59412 5.46957 5.89578C5.60847 5.19745 5.95134 4.55599 6.45481 4.05252C6.95828 3.54906 7.59974 3.20619 8.29807 3.06728C8.9964 2.92838 9.72024 2.99967 10.3781 3.27214C11.0359 3.54462 11.5981 4.00604 11.9937 4.59806C12.3893 5.19007 12.6004 5.8861 12.6004 6.59811C12.5989 7.55243 12.2191 8.46724 11.5443 9.14205C10.8695 9.81686 9.95472 10.1966 9.00039 10.1981ZM9.00039 4.20186C8.52535 4.20186 8.06097 4.34273 7.66598 4.60665C7.271 4.87057 6.96314 5.24569 6.78135 5.68458C6.59956 6.12346 6.55199 6.6064 6.64467 7.07232C6.73735 7.53824 6.9661 7.96621 7.30201 8.30212C7.63792 8.63802 8.06589 8.86678 8.53181 8.95946C8.99773 9.05213 9.48066 9.00457 9.91955 8.82278C10.3584 8.64099 10.7336 8.33313 10.9975 7.93814C11.2614 7.54316 11.4023 7.07878 11.4023 6.60373C11.4023 5.96672 11.1492 5.35579 10.6988 4.90535C10.2483 4.45491 9.63741 4.20186 9.00039 4.20186Z" fill="white"/>
<path d="M13.2074 13.8712C13.0574 13.8716 12.9128 13.8153 12.8024 13.7137C12.0294 12.9933 11.0128 12.5915 9.95615 12.5887H8.04927C6.99262 12.5915 5.97601 12.9933 5.20302 13.7137C5.14546 13.7712 5.07684 13.8165 5.00131 13.8467C4.92578 13.8769 4.8449 13.8915 4.76356 13.8896C4.68222 13.8877 4.60212 13.8694 4.52808 13.8356C4.45405 13.8019 4.38762 13.7535 4.33281 13.6933C4.27801 13.6332 4.23597 13.5626 4.20922 13.4858C4.18248 13.4089 4.1716 13.3275 4.17722 13.2463C4.18285 13.1651 4.20488 13.0859 4.24197 13.0135C4.27906 12.9411 4.33044 12.877 4.39302 12.825C5.38965 11.908 6.695 11.3999 8.04927 11.4019H9.95052C11.3083 11.4016 12.6161 11.9139 13.6124 12.8362C13.6999 12.9184 13.7609 13.0249 13.7874 13.142C13.814 13.2591 13.8049 13.3814 13.7613 13.4933C13.7178 13.6052 13.6418 13.7015 13.5431 13.7699C13.4443 13.8382 13.3275 13.8755 13.2074 13.8769V13.8712Z" fill="white"/>
</g>
<defs>
<clipPath id="clip0_180_13467">
<rect width="18" height="18" fill="white"/>
</clipPath>
</defs>
</svg>
