<svg width="18" height="18" viewBox="0 0 18 18" fill="none" xmlns="http://www.w3.org/2000/svg">
<g clip-path="url(#clip0_180_13444)">
<path d="M14.0855 18C13.727 18 13.3747 17.8968 13.0665 17.7013L9.17651 15.2314C9.07012 15.1637 8.92905 15.1644 8.82345 15.2314L4.93264 17.7013C4.20681 18.1623 3.20593 18.0552 2.59043 17.468C2.21294 17.1071 2.00488 16.6185 2.00488 16.092V1.9056C2.00567 0.855079 2.86075 0 3.91128 0H14.0887C15.1392 0 15.9943 0.855079 15.9943 1.9056V16.092C15.9943 17.1441 15.1384 18 14.0855 18ZM8.99998 13.604C9.3625 13.604 9.71635 13.7065 10.0221 13.9011L13.9122 16.3702C13.9681 16.4057 14.0256 16.423 14.0863 16.423C14.2203 16.423 14.4189 16.3182 14.4189 16.092V1.9056C14.4181 1.72434 14.2699 1.57618 14.0887 1.57618H3.91128C3.72923 1.57618 3.58185 1.72434 3.58185 1.9056V16.092C3.58185 16.1866 3.61495 16.2654 3.68036 16.3277C3.78833 16.4309 3.95304 16.4561 4.0886 16.3702L7.97861 13.9004C8.2836 13.7065 8.63746 13.604 8.99998 13.604Z" fill="white"/>
</g>
<defs>
<clipPath id="clip0_180_13444">
<rect width="18" height="18" fill="white"/>
</clipPath>
</defs>
</svg>
