<svg width="16" height="16" viewBox="0 0 16 16" fill="none" xmlns="http://www.w3.org/2000/svg">
<path d="M7.29362 1.2876C3.98781 1.2876 1.29492 3.98048 1.29492 7.28631C1.29492 10.5921 3.98781 13.2902 7.29362 13.2902C8.70563 13.2902 10.0042 12.7954 11.0306 11.9738L13.5293 14.4712C13.6554 14.5921 13.8238 14.6588 13.9985 14.657C14.1731 14.6552 14.3402 14.5851 14.4638 14.4617C14.5874 14.3382 14.6577 14.1713 14.6597 13.9967C14.6618 13.822 14.5953 13.6535 14.4746 13.5272L11.9759 11.0285C12.7982 10.0006 13.2936 8.69995 13.2936 7.28631C13.2936 3.98048 10.5994 1.2876 7.29362 1.2876ZM7.29362 2.62095C9.87885 2.62095 11.959 4.70108 11.959 7.28631C11.959 9.87153 9.87885 11.9569 7.29362 11.9569C4.7084 11.9569 2.62826 9.87153 2.62826 7.28631C2.62826 4.70108 4.7084 2.62095 7.29362 2.62095Z" fill="#050B20"/>
</svg>
