<!DOCTYPE svg PUBLIC "-//W3C//DTD SVG 1.1//EN" "http://www.w3.org/Graphics/SVG/1.1/DTD/svg11.dtd">
<!-- Uploaded to: SVG Repo, www.svgrepo.com, Transformed by: SVG Repo Mixer Tools -->
<svg fill="#a77958" height="800px" width="800px" version="1.1" id="Layer_1" xmlns="http://www.w3.org/2000/svg" xmlns:xlink="http://www.w3.org/1999/xlink" viewBox="0 0 512.021 512.021" xml:space="preserve">
<g id="SVGRepo_bgCarrier" stroke-width="0"/>
<g id="SVGRepo_tracerCarrier" stroke-linecap="round" stroke-linejoin="round"/>
<g id="SVGRepo_iconCarrier"> <g> <g> <polygon points="483.121,273.111 474.621,290.111 512.021,290.111 512.021,273.111 "/> </g> </g> <g> <g> <polygon points="474.621,409.611 466.121,426.711 512.021,426.711 512.021,409.611 "/> </g> </g> <g> <g> <path d="M443.721,324.311h68.3v-17.1h-51.2c-3,0-5.7-1.5-7.3-4.1c-1.6-2.6-1.7-5.7-0.4-8.3l17.1-34.1c1.4-2.9,4.4-4.7,7.6-4.7 h31.9c-6.3-19.8-24.8-34.1-46.6-34.1h-55.9c-21.8,0-40.3,14.4-46.6,34.1h74.5c3,0,5.7,1.5,7.3,4s1.7,5.7,0.4,8.3l-17.1,34.1 c-1.4,2.9-4.4,4.7-7.6,4.7h-51.2h-8.5h-17.1v-25.6c0-4.7-3.8-8.5-8.5-8.5h-28.8c-4-3.5-8.8-5.9-13.9-7.3v-18.3h8.5 c4.7,0,8.5-3.8,8.5-8.5v-34.1h8.5c14.1,0,25.6-11.5,25.6-25.6c0-4.7-3.8-8.5-8.5-8.5s-8.5,3.8-8.5,8.5s-3.8,8.5-8.5,8.5h-8.5 v-25.6h8.5c14.1,0,25.6-11.5,25.6-25.6c0-4.7-3.8-8.5-8.5-8.5s-8.5,3.8-8.5,8.5s-3.8,8.5-8.5,8.5h-8.5v-25.6h8.5 c14.1,0,25.6-11.5,25.6-25.6c0-4.7-3.8-8.5-8.5-8.5s-8.5,3.8-8.5,8.5s-3.8,8.5-8.5,8.5h-8.5v-25.5h34.1c4.7,0,8.5-3.8,8.5-8.5 v-34.2c0-4.7-3.8-8.5-8.5-8.5h-17.1v-8.5c0-4.7-3.8-8.5-8.5-8.5s-8.5,3.8-8.5,8.5v8.5h-17.1v-17.1c0-4.7-3.8-8.5-8.5-8.5 s-8.5,3.8-8.5,8.5v17.1h-25.6v-8.5c0-4.7-3.8-8.5-8.5-8.5s-8.5,3.8-8.5,8.5v8.5h-8.5c-4.7,0-8.5,3.8-8.5,8.5v34.1 c0,4.7,3.8,8.5,8.5,8.5h33.8v25.6h-8.5c-14.1,0-25.6,11.5-25.6,25.6c0,4.7,3.8,8.5,8.5,8.5c4.7,0,8.5-3.8,8.5-8.5 c0-4.7,3.8-8.5,8.5-8.5h8.5v25.6h-8.5c-14.1,0-25.6,11.5-25.6,25.6c0,4.7,3.8,8.5,8.5,8.5s8.5-3.8,8.5-8.5c0-4.7,3.8-8.5,8.5-8.5 h8.5v25.6h-8.5c-14.1,0-25.6,11.5-25.6,25.6c0,4.7,3.8,8.5,8.5,8.5c4.7,0,8.5-3.8,8.5-8.5c0-4.7,3.8-8.5,8.5-8.5h8.5v34.1 c0,4.7,3.8,8.5,8.5,8.5h8.5v18.3c-14.7,3.8-25.6,17.1-25.6,32.9c0,18.8,15.3,34.1,34.1,34.1c2.9,0,5.8-0.4,8.5-1.1v18.2h-33.7 c-7.6,0-14.5,2.6-20.2,6.8l-224.3-83c-4.4-1.6-9.3,0.6-11,5c-1.6,4.4,0.6,9.3,5,11l219,81.1c-0.6,1.5-1.1,3.1-1.5,4.8H8.521 c-4.7,0-8.5,3.8-8.5,8.5s3.8,8.5,8.5,8.5h214.5c3.8,14.7,17.1,25.6,32.9,25.6h34.1v25.6c0,4.7,3.8,8.5,8.5,8.5h59.7v8.5h42.7 c3.2,0,6.2,1.8,7.6,4.7l23.2,46.5h23.6l-19.4-38.9c-1.3-2.6-1.2-5.8,0.4-8.3c1.6-2.5,4.3-4,7.3-4h68.4v-17.1h-59.7 c-3,0-5.7-1.5-7.3-4.1c-1.6-2.5-1.7-5.7-0.4-8.3l17.1-34.1c1.4-2.9,4.4-4.7,7.6-4.7h42.7v-17.1h-51.2c-3.2,0-6.2-1.8-7.6-4.7 l-17.1-34.1c-1.3-2.6-1.2-5.8,0.4-8.3C438.021,325.811,440.821,324.311,443.721,324.311z M273.121,76.811h17.1v25.6h-17.1V76.811z M273.121,119.511h17.1v25.6h-17.1V119.511z M273.121,162.111h17.1v25.6h-17.1V162.111z M273.121,204.811h17.1v25.6h-17.1V204.811 z M358.421,366.911v34.1v34.1h-51.2v-25.6v-51.2v-40.8c0-3.4-2-6.4-5.1-7.8c-3.1-1.4-6.7-0.8-9.2,1.5c-2.3,2-6.1,4.5-11.4,4.5 c-9.4,0-17.1-7.7-17.1-17.1c0-9.4,7.7-17.1,17.1-17.1c4.8,0,9.3,2,12.6,5.7c1.6,1.8,3.9,2.8,6.3,2.8h23.7v25.6 c0,4.7,3.8,8.5,8.5,8.5h25.6v8.7h0.2V366.911z M395.921,341.311h-20.3v-17.1h25.6c3.2,0,6.2,1.8,7.6,4.7l17.1,34.1 c1.3,2.6,1.2,5.8-0.4,8.3c-1.6,2.5-4.3,4.1-7.3,4.1h-42.7v-17h28.9L395.921,341.311z M434.321,404.911l-17.1,34.1 c-1.4,2.9-4.4,4.7-7.6,4.7h-34.1v-17.1h28.9l8.5-17.1h-37.4v-17.1h51.2c3,0,5.7,1.5,7.3,4 C435.521,399.111,435.621,402.211,434.321,404.911z"/> </g> </g> <g> <g> <path d="M457.521,477.911l16.5,32.9c16.9-3.8,30.6-16.5,35.7-32.9H457.521z"/> </g> </g> <g> <g> <polygon points="457.521,341.311 466.121,358.411 512.021,358.411 512.021,341.311 "/> </g> </g> <g> <g> <path d="M395.821,477.911h-35.1c6.3,19.8,24.8,34.1,46.6,34.1h5.6L395.821,477.911z"/> </g> </g> <g> <g> <polygon points="358.421,273.111 358.421,290.111 412.921,290.111 421.421,273.111 "/> </g> </g> </g>
</svg>