<!DOCTYPE svg PUBLIC "-//W3C//DTD SVG 1.1//EN" "http://www.w3.org/Graphics/SVG/1.1/DTD/svg11.dtd">
<!-- Uploaded to: SVG Repo, www.svgrepo.com, Transformed by: SVG Repo Mixer Tools -->
<svg width="800px" height="800px" viewBox="0 0 512 512" id="Layer_1" version="1.1" xml:space="preserve" xmlns="http://www.w3.org/2000/svg" xmlns:xlink="http://www.w3.org/1999/xlink" fill="#000000">
<g id="SVGRepo_bgCarrier" stroke-width="0"/>
<g id="SVGRepo_tracerCarrier" stroke-linecap="round" stroke-linejoin="round"/>
<g id="SVGRepo_iconCarrier"> <style type="text/css"> .st0{fill:#fcca3d;} .st1{fill:#ff5576;} </style> <g> <path class="st1" d="M422.3,276.2c-2.7,0-4.9,2.2-4.9,4.9v10.8c0,2.7,2.2,4.9,4.9,4.9s4.9-2.2,4.9-4.9v-10.8 C427.1,278.4,425,276.2,422.3,276.2z"/> <polygon class="st1" points="170.8,336.6 164.9,362 314.8,362 308.9,336.6 "/> <path class="st1" d="M382.7,233.8c2.7,0,4.9-2.2,4.9-4.9v-10.8c0-2.7-2.2-4.9-4.9-4.9s-4.9,2.2-4.9,4.9v10.8 C377.9,231.6,380.1,233.8,382.7,233.8z"/> <path class="st0" d="M467.4,167.8H297.7c0.2-0.1,0.3-0.2,0.5-0.3c21.6-14.5,39-35.4,48.9-58.9c5-11.7,7.4-22.2,7.4-32.1 c0,0,0,0,0,0c0-12.7-4.1-24.3-11.6-32.7c-8.8-9.8-22.1-14.3-34-11.5c-13.5,3.2-22.5,14.7-28.9,24.4c-9.6,14.6-17.6,30.2-24,46.6 c-6.3-16.4-14.4-32-24-46.6c-6.4-9.7-15.4-21.2-28.9-24.4c-11.8-2.8-25.2,1.7-34,11.5c-7.5,8.3-11.6,19.9-11.6,32.7 c0,9.9,2.4,20.4,7.4,32.1c10,23.5,27.3,44.4,48.9,58.9c0.2,0.1,0.3,0.2,0.5,0.3H44.6c-10.1,0-18.3,8.2-18.3,18.3v276 c0,10.1,8.2,18.3,18.3,18.3h422.8c10.1,0,18.3-8.2,18.3-18.3v-276C485.8,176,477.5,167.8,467.4,167.8z M433.7,206.2 c3.3,2.1,4.2,6.4,2.1,9.7L381,301.7c-1.3,2.1-3.6,3.2-5.9,3.2c-1.3,0-2.6-0.4-3.8-1.1c-3.3-2.1-4.2-6.4-2.1-9.7l54.8-85.8 C426.1,205.1,430.4,204.1,433.7,206.2z M363.9,218.1c0-10.4,8.5-18.9,18.9-18.9s18.9,8.5,18.9,18.9v10.8c0,10.4-8.5,18.9-18.9,18.9 s-18.9-8.5-18.9-18.9V218.1z M291.6,64.4c5.3-8,11.8-16.4,20.4-18.5c1.3-0.3,2.6-0.4,3.9-0.4c5.8,0,12.1,2.8,16.4,7.7 c5.1,5.7,8,14.2,8,23.3c0,8-2,16.7-6.3,26.7c-8.9,21-24.5,39.7-43.8,52.7c-5.4,3.6-13.5,9-21.1,11.9h-12.3c-1-1.8-1.5-4.8-1.2-8.1 c0-0.7,0.1-1.4,0.2-2.2c0.5-3,1-6,1.5-8.9c1.4-7.3,3.2-14.5,5.2-21.6c0,0,0,0,0,0c0.8-2.6,1.5-4.9,2.2-7.1 C271.4,100.2,280.4,81.6,291.6,64.4z M177.8,103.2c-4.2-9.9-6.3-18.6-6.2-26.7c0-9.1,2.9-17.6,8-23.3c4.4-4.9,10.6-7.7,16.4-7.7 c1.3,0,2.6,0.1,3.9,0.4c8.6,2.1,15.2,10.5,20.4,18.5c11.3,17.1,20.3,35.8,26.7,55.5c0.6,1.7,1.1,3.5,1.6,5.2 c-0.1,0.4-0.2,0.8-0.3,1.1c-0.2,0.5-0.3,1.1-0.5,1.6c-0.2,0.7-0.4,1.5-0.6,2.2c-0.1,0.6-0.3,1.1-0.4,1.7c-0.2,0.7-0.4,1.5-0.6,2.2 c-0.1,0.6-0.3,1.1-0.4,1.7c-0.2,0.7-0.3,1.5-0.5,2.2c-0.1,0.6-0.3,1.1-0.4,1.7c-0.2,0.8-0.3,1.5-0.5,2.3c-0.1,0.5-0.2,1.1-0.3,1.6 c-0.2,0.8-0.3,1.6-0.5,2.4c-0.1,0.5-0.2,1-0.3,1.5c-0.2,0.9-0.3,1.8-0.5,2.7c-0.1,0.4-0.2,0.9-0.2,1.3c-0.2,1.3-0.4,2.6-0.6,4 c-0.1,0.7-0.2,1.4-0.3,2.2c0,0.2,0,0.4-0.1,0.5c-0.1,0.7-0.1,1.4-0.1,2c0,0,0,0.1,0,0.1c0,0.7,0,1.4,0,2c0,0.2,0,0.3,0,0.5 c0,0.6,0.1,1.2,0.1,1.8c0,0.1,0,0.1,0,0.2c0.1,0.6,0.1,1.2,0.2,1.8c0,0.2,0.1,0.3,0.1,0.5c0,0.2,0.1,0.4,0.1,0.5 c-7.6-3-15.6-8.4-20.5-11.7C202.3,142.9,186.7,124.2,177.8,103.2z M141.5,442.2c-11.7,0-21.2-9.5-21.2-21.2 c0-11.7,9.5-21.2,21.2-21.2s21.2,9.5,21.2,21.2C162.7,432.7,153.2,442.2,141.5,442.2z M353.3,442.2c-11.7,0-21.2-9.5-21.2-21.2 c0-11.7,9.5-21.2,21.2-21.2c11.7,0,21.2,9.5,21.2,21.2C374.5,432.7,365,442.2,353.3,442.2z M436.8,421h-48.3 c0-19.4-15.8-35.2-35.2-35.2s-35.2,15.8-35.2,35.2H176.7c0-19.4-15.8-35.2-35.2-35.2s-35.2,15.8-35.2,35.2H75.2l18-75.3h41.9 l8.4-25.2c2.6-7.7,9.8-12.9,17.9-12.9h155.5c8.8,0,16.3,6,18.3,14.5l9.3,39.9H389c6.3,0,12.5,1.3,18.3,3.6 c5.8,2.4,11,5.9,15.5,10.4c9,9,14,21.1,14,33.8V421z M441.1,291.9c0,10.4-8.5,18.9-18.9,18.9s-18.9-8.5-18.9-18.9v-10.8 c0-10.4,8.5-18.9,18.9-18.9s18.9,8.5,18.9,18.9V291.9z"/> </g> </g>
</svg>