<svg width="18" height="18" viewBox="0 0 18 18" fill="none" xmlns="http://www.w3.org/2000/svg">
<g clip-path="url(#clip0_180_13473)">
<path d="M16.2001 11.9981C16.0405 11.9981 15.8874 12.0615 15.7745 12.1744C15.6617 12.2873 15.5982 12.4404 15.5982 12.6C15.5968 13.7139 15.1536 14.7818 14.3659 15.5695C13.5782 16.3572 12.5103 16.8004 11.3964 16.8019H6.59824C5.48527 16.7989 4.41881 16.3551 3.63234 15.5675C2.84588 14.78 2.40348 13.713 2.40199 12.6V5.4C2.40348 4.28605 2.84665 3.21815 3.63434 2.43047C4.42202 1.64279 5.48992 1.19961 6.60387 1.19813H11.402C12.515 1.2011 13.5814 1.64493 14.3679 2.43245C15.1544 3.21997 15.5968 4.28702 15.5982 5.4C15.5901 5.48355 15.5996 5.56787 15.626 5.64754C15.6524 5.72722 15.6952 5.80048 15.7516 5.86264C15.8081 5.92479 15.8769 5.97446 15.9536 6.00845C16.0304 6.04243 16.1134 6.05999 16.1973 6.05999C16.2812 6.05999 16.3643 6.04243 16.441 6.00845C16.5178 5.97446 16.5866 5.92479 16.643 5.86264C16.6994 5.80048 16.7422 5.72722 16.7686 5.64754C16.795 5.56787 16.8045 5.48355 16.7964 5.4C16.7949 3.96926 16.2262 2.59746 15.2151 1.58525C14.2039 0.573039 12.8327 0.00297684 11.402 0L6.59824 0C5.16653 0.00148904 3.79388 0.570894 2.78151 1.58327C1.76914 2.59564 1.19973 3.96829 1.19824 5.4V12.6C1.19973 14.0317 1.76914 15.4044 2.78151 16.4167C3.79388 17.4291 5.16653 17.9985 6.59824 18H11.3964C12.8281 17.9985 14.2007 17.4291 15.2131 16.4167C16.2255 15.4044 16.7949 14.0317 16.7964 12.6C16.7964 12.4413 16.7337 12.2891 16.6221 12.1764C16.5104 12.0637 16.3588 11.9996 16.2001 11.9981Z" fill="white"/>
<path d="M16.2002 8.39814H9.24773L10.6259 7.02002C10.7093 6.90324 10.7483 6.76048 10.7357 6.61751C10.7232 6.47453 10.6599 6.34074 10.5574 6.24027C10.4549 6.13981 10.3199 6.07928 10.1767 6.06961C10.0335 6.05993 9.89156 6.10175 9.77648 6.18752L7.3746 8.58939C7.26228 8.70219 7.19922 8.8549 7.19922 9.01408C7.19922 9.17327 7.26228 9.32597 7.3746 9.43877L9.77648 11.8125C9.89136 11.9133 10.0403 11.9667 10.1931 11.9617C10.3458 11.9567 10.491 11.8938 10.5991 11.7857C10.7071 11.6776 10.77 11.5325 10.775 11.3797C10.78 11.227 10.7267 11.078 10.6259 10.9631L9.24773 9.58502H16.2002C16.3491 9.57058 16.4873 9.50122 16.5878 9.39048C16.6883 9.27973 16.744 9.13552 16.744 8.98596C16.744 8.83639 16.6883 8.69218 16.5878 8.58144C16.4873 8.47069 16.3491 8.40134 16.2002 8.38689V8.39814Z" fill="white"/>
</g>
<defs>
<clipPath id="clip0_180_13473">
<rect width="18" height="18" fill="white"/>
</clipPath>
</defs>
</svg>
