<?xml version="1.0" encoding="utf-8"?>
<!-- Uploaded to: SVG Repo, www.svgrepo.com, Generator: SVG Repo Mixer Tools -->
<svg fill="#000000" version="1.1" id="Layer_1" xmlns="http://www.w3.org/2000/svg" xmlns:xlink="http://www.w3.org/1999/xlink" 
	 width="800px" height="800px" viewBox="0 0 256 241" enable-background="new 0 0 256 241" xml:space="preserve">
<path d="M254,188V2H2v186h111v29H75v22h106v-22h-38v-29H254z M19,19h217v151H19L19,19z M130.182,116.332l-78.717,0.06
	c0.12-7.053,1.494-15.301,3.825-22.533l18.529,7.113c0.657-1.972,1.315-3.825,2.092-5.618L57.322,88.36
	c4.722-11.356,12.133-21.218,21.338-29.048l12.133,15.779c1.554-1.315,3.108-2.63,4.782-3.706l-12.074-15.72
	c11.775-8.487,26-13.628,41.54-14.166v19.844c1.434,0,4.244,0,6.336,0V41.5c14.823,0.657,29.168,5.678,40.883,14.046l-12.193,15.72
	c1.674,1.195,3.228,2.391,4.782,3.706l12.133-15.779c9.324,7.83,16.676,17.692,21.517,29.048l-18.589,7.053
	c0.837,1.853,1.554,3.706,2.212,5.678l18.529-7.352c2.391,7.232,3.825,15.66,3.885,22.713l-65.687,0.06l8.487-42.616l-8.248-1.614
	L130.182,116.332z M136.039,128.645l2.69-12.253h-8.547l-2.57,11.536c-4.303,0.657-8.069,2.869-10.759,5.977
	c-2.69,3.108-4.303,7.172-4.303,11.595h35.503c0.06-2.51-0.418-4.841-1.315-6.993C144.766,133.845,140.88,130.259,136.039,128.645z"
	/>
</svg>