<!DOCTYPE svg PUBLIC "-//W3C//DTD SVG 1.1//EN" "http://www.w3.org/Graphics/SVG/1.1/DTD/svg11.dtd">
<!-- Uploaded to: SVG Repo, www.svgrepo.com, Transformed by: SVG Repo Mixer Tools -->
<svg fill="#000000" width="800px" height="800px" viewBox="0 0 32 32" style="fill-rule:evenodd;clip-rule:evenodd;stroke-linejoin:round;stroke-miterlimit:2;" version="1.1" xml:space="preserve" xmlns="http://www.w3.org/2000/svg" xmlns:serif="http://www.serif.com/" xmlns:xlink="http://www.w3.org/1999/xlink">
<g id="SVGRepo_bgCarrier" stroke-width="0"/>
<g id="SVGRepo_tracerCarrier" stroke-linecap="round" stroke-linejoin="round"/>
<g id="SVGRepo_iconCarrier"> <g transform="matrix(1,0,0,1,-96,-384)"> <g transform="matrix(1,0,0,1.5,0,-195)"> <path d="M123,390.139C123,389.941 122.869,389.755 122.642,389.628C122.415,389.501 122.116,389.448 121.825,389.483C119.095,389.739 115.9,389.237 113.167,387.95C112.472,387.611 111.529,387.612 110.835,387.953C108.106,389.249 104.916,389.77 102.184,389.504C101.896,389.468 101.598,389.519 101.372,389.643C101.146,389.768 101.015,389.954 101.015,390.149C101,392.424 101,398.817 101,401.141C101,401.664 101.458,402.139 102.172,402.355C104.41,403.033 109.237,404.496 111.172,405.083C111.698,405.242 112.302,405.242 112.828,405.083C114.763,404.496 119.59,403.033 121.828,402.355C122.542,402.139 123,401.664 123,401.141C123,398.813 123,392.403 123,390.139Z" style="fill:#fcca3d;"/> </g> <path d="M124,406.712L124,390.208C124,389.616 123.738,389.055 123.284,388.675C122.836,388.3 122.247,388.14 121.671,388.236C119.171,388.584 116.25,387.878 113.747,386.109C112.704,385.354 111.293,385.357 110.253,386.116C107.762,387.889 104.859,388.626 102.364,388.272C101.772,388.168 101.183,388.323 100.734,388.695C100.279,389.072 100.015,389.633 100.015,390.224C100,393.632 100,403.225 100,406.712L100,406.712C100,407.889 100.688,408.956 101.759,409.443C103.996,410.46 108.823,412.654 110.759,413.534C111.547,413.893 112.453,413.893 113.241,413.534C115.177,412.654 120.004,410.46 122.241,409.443C123.312,408.956 124,407.889 124,406.712ZM121.999,390.208L122,390.209L122,406.712C122,407.104 121.771,407.46 121.414,407.623C119.177,408.639 114.349,410.834 112.414,411.713C112.151,411.833 111.849,411.833 111.586,411.713C109.651,410.834 104.823,408.639 102.586,407.623C102.229,407.46 102,407.104 102,406.712C102,403.231 102,393.664 102.015,390.242L102.018,390.243C104.998,390.678 108.459,389.849 111.416,387.743L111.422,387.739C111.77,387.483 112.235,387.482 112.578,387.732L112.584,387.736C115.547,389.831 119.009,390.63 121.964,390.214L121.999,390.208ZM107.293,399.707L110.44,402.854C110.83,403.244 111.463,403.244 111.854,402.854L117.748,396.96C118.138,396.57 118.138,395.936 117.748,395.546C117.357,395.155 116.724,395.155 116.334,395.546L111.147,400.732C111.147,400.732 108.707,398.293 108.707,398.293C108.317,397.903 107.683,397.903 107.293,398.293C106.903,398.683 106.903,399.317 107.293,399.707ZM122,390.209C122,390.209 122,390.209 122,390.209Z" style="fill:#ff5576;"/> </g> </g>
</svg>