<!DOCTYPE svg PUBLIC "-//W3C//DTD SVG 1.1//EN" "http://www.w3.org/Graphics/SVG/1.1/DTD/svg11.dtd">
<!-- Uploaded to: SVG Repo, www.svgrepo.com, Transformed by: SVG Repo Mixer Tools -->
<svg fill="#a77958" height="800px" width="800px" version="1.1" id="Layer_1" xmlns="http://www.w3.org/2000/svg" xmlns:xlink="http://www.w3.org/1999/xlink" viewBox="0 0 512 512" xml:space="preserve">
<g id="SVGRepo_bgCarrier" stroke-width="0"/>
<g id="SVGRepo_tracerCarrier" stroke-linecap="round" stroke-linejoin="round"/>
<g id="SVGRepo_iconCarrier"> <g> <g> <path d="M511.013,307.28l-22.064-125.117c-5.462-30.972-32.281-53.452-63.769-53.452H86.824c-31.488,0-58.307,22.48-63.769,53.452 L0.991,307.28c-3.336,18.912,1.837,38.192,14.189,52.897c12.336,14.688,30.43,23.112,49.639,23.112h382.369 c19.177,0,37.255-8.429,49.599-23.124C509.157,345.436,514.343,326.161,511.013,307.28z M471.028,338.529 c-5.936,7.068-14.626,11.121-23.841,11.121H285.104l103.759-56.172l55.21-8.682c9.177-1.443,15.446-10.051,14.003-19.228 c-1.442-9.177-10.052-15.445-19.228-14.003l-158.55,24.932c-9.177,1.443-15.446,10.051-14.003,19.228 c1.443,9.176,10.05,15.445,19.228,14.003l3.758-0.591l-74.834,40.513H64.817c-9.246,0-17.951-4.049-23.88-11.109 c-5.936-7.066-8.422-16.332-6.82-25.419l22.064-125.117c2.622-14.866,15.509-25.655,30.642-25.655h152.356v14.577h-19.351 c-9.289,0-16.819,7.531-16.819,16.819c0,9.289,7.531,16.819,16.819,16.819h74.006c9.289,0,16.819-7.531,16.819-16.819 c0-9.289-7.531-16.819-16.819-16.819h-21.015v-14.577h152.362c15.133,0,28.02,10.79,30.642,25.655l22.064,125.116 C479.482,322.178,476.983,331.439,471.028,338.529z"/> </g> </g> </g>
</svg>